<svg width="740" height="160" viewBox="0 0 740 160" fill="none" xmlns="http://www.w3.org/2000/svg">
<g clip-path="url(#clip0)">
<rect width="740" height="160" rx="32" fill="#DCEAF6"/>
<mask id="mask0" mask-type="alpha" maskUnits="userSpaceOnUse" x="0" y="0" width="740" height="160">
<rect width="740" height="160" rx="32" fill="white"/>
</mask>
<g mask="url(#mask0)">
<path d="M29.9863 77.2344C32.9258 77.2344 35.0059 75.252 35.0059 72.4199C35.0059 69.7148 33.0527 67.752 30.3477 67.752C28.9805 67.752 27.8086 68.2598 27.1445 69.207H27.1055L27.584 64.4707H34.2051V62.9082H26.1387L25.416 70.9453H26.9688C27.623 69.8125 28.6973 69.2656 30.0352 69.2656C31.9102 69.2656 33.248 70.6035 33.248 72.4688C33.248 74.3633 31.9199 75.6914 30.0059 75.6914C28.3164 75.6914 27.0371 74.6562 26.8809 73.1523H25.1523C25.2988 75.5547 27.291 77.2344 29.9863 77.2344Z" fill="#1F3750"/>
<path d="M40.9043 77H42.6035V70.6328C42.6035 69.2266 43.5801 68.1719 44.9277 68.1719C46.1875 68.1719 47.0078 68.9727 47.0078 70.1934V77H48.707V70.5449C48.707 69.168 49.6543 68.1719 51.002 68.1719C52.3398 68.1719 53.1113 68.9922 53.1113 70.3789V77H54.8105V69.9883C54.8105 67.9766 53.5117 66.668 51.5 66.668C50.0742 66.668 48.8828 67.3906 48.3164 68.6016H48.2773C47.8379 67.3711 46.8125 66.668 45.4258 66.668C44.0586 66.668 43.0234 67.3906 42.5449 68.4648H42.5059V66.8438H40.9043V77Z" fill="#1F3750"/>
<path d="M57.916 65.0371C58.5117 65.0371 58.9805 64.5586 58.9805 63.9727C58.9805 63.377 58.5117 62.9082 57.916 62.9082C57.3301 62.9082 56.8516 63.377 56.8516 63.9727C56.8516 64.5586 57.3301 65.0371 57.916 65.0371ZM57.0664 77H58.7656V66.8438H57.0664V77Z" fill="#1F3750"/>
<path d="M61.0605 77H62.7598V71.0234C62.7598 69.3047 63.8047 68.1719 65.4062 68.1719C66.9688 68.1719 67.7402 69.0703 67.7402 70.7109V77H69.4395V70.4082C69.4395 68.1035 68.1504 66.668 65.9238 66.668C64.3516 66.668 63.2676 67.3711 62.7012 68.4648H62.6621V66.8438H61.0605V77Z" fill="#1F3750"/>
<path d="M71.4316 69.6465C71.4316 71.1113 72.3594 72 74.2734 72.459L75.8848 72.8496C77.0469 73.1328 77.4473 73.5527 77.4473 74.2852C77.4473 75.2031 76.5977 75.7891 75.2207 75.7891C73.8438 75.7891 73.0625 75.2324 72.8574 74.0703H71.1582C71.3535 75.9746 72.8379 77.1758 75.2207 77.1758C77.4863 77.1758 79.1562 75.9258 79.1562 74.1582C79.1562 72.7031 78.4141 71.9023 76.3633 71.4043L74.752 71.0137C73.6191 70.7402 73.1016 70.2617 73.1016 69.5586C73.1016 68.6699 73.9219 68.0547 75.1621 68.0547C76.4121 68.0547 77.1934 68.709 77.3203 69.7734H78.9414C78.873 67.9766 77.3887 66.668 75.1621 66.668C72.9648 66.668 71.4316 67.9082 71.4316 69.6465Z" fill="#1F3750"/>
<path d="M24.916 102.49C25.0801 106.1 28.1016 108.328 32.668 108.328C37.4121 108.328 40.3789 105.949 40.3789 102.176C40.3789 99.25 38.6426 97.582 34.4863 96.7207L32.3535 96.2832C29.8926 95.7637 28.9082 94.9023 28.9082 93.5625C28.9082 91.9082 30.4668 90.8691 32.6543 90.8691C34.9102 90.8691 36.4688 91.9902 36.6328 93.8496H40.0098C39.9277 90.3223 37.043 87.9434 32.6816 87.9434C28.4023 87.9434 25.3535 90.2949 25.3535 93.7676C25.3535 96.6523 27.1992 98.5117 31.1504 99.3184L33.2695 99.7559C35.8398 100.289 36.8242 101.164 36.8242 102.586C36.8242 104.227 35.1699 105.402 32.791 105.402C30.3301 105.402 28.5527 104.309 28.293 102.49H24.916Z" fill="#144A80"/>
<path d="M42.7715 108H46.1758V99.6738C46.1758 97.541 47.4199 96.1191 49.4707 96.1191C51.4395 96.1191 52.4512 97.3359 52.4512 99.3594V108H55.8555V98.6621C55.8555 95.3398 53.9824 93.2344 50.7832 93.2344C48.582 93.2344 46.9824 94.2324 46.2031 95.9961H46.1348V88.2715H42.7715V108Z" fill="#144A80"/>
<path d="M62.8555 108.232C64.7148 108.232 66.5332 107.262 67.3672 105.689H67.4355V108H70.7168V98.0195C70.7168 95.1074 68.3789 93.207 64.7832 93.207C61.0918 93.207 58.7812 95.1484 58.6309 97.8555H61.7891C62.0078 96.6523 63.0332 95.873 64.6465 95.873C66.3281 95.873 67.3535 96.748 67.3535 98.2656V99.3047L63.5254 99.5234C59.998 99.7422 58.0156 101.287 58.0156 103.857C58.0156 106.469 60.0527 108.232 62.8555 108.232ZM63.8809 105.662C62.4043 105.662 61.4199 104.91 61.4199 103.721C61.4199 102.572 62.3633 101.834 64.0039 101.725L67.3535 101.52V102.627C67.3535 104.377 65.8086 105.662 63.8809 105.662Z" fill="#144A80"/>
<path d="M73.4648 108H76.8691V99.5645C76.8691 97.5273 78.0312 96.2832 79.959 96.2832C80.5332 96.2832 81.0527 96.3652 81.3398 96.4746V93.3984C81.0938 93.3438 80.7109 93.2617 80.2734 93.2617C78.5645 93.2617 77.293 94.2734 76.8008 96.0371H76.7324V93.5078H73.4648V108Z" fill="#144A80"/>
<path d="M92.1406 103.666C91.7715 104.869 90.5684 105.662 88.9824 105.662C86.7539 105.662 85.332 104.104 85.332 101.779V101.574H95.4629V100.467C95.4629 96.0645 92.8926 93.207 88.7773 93.207C84.5938 93.207 81.9414 96.2285 81.9414 100.809C81.9414 105.43 84.5664 108.287 88.9141 108.287C92.3457 108.287 94.8887 106.4 95.3262 103.666H92.1406ZM88.791 95.8457C90.7461 95.8457 92.0586 97.2812 92.127 99.332H85.3594C85.4961 97.3086 86.877 95.8457 88.791 95.8457Z" fill="#144A80"/>
<path d="M104.896 113.387C108.205 113.387 109.805 112.17 111.035 108.574L116.285 93.5078H112.703L109.285 105.102H109.217L105.812 93.5078H102.094L107.248 108.014C107.262 108.055 107.043 108.779 107.043 108.82C106.674 110.16 105.949 110.693 104.541 110.693C104.336 110.693 103.734 110.68 103.557 110.639V113.332C103.734 113.373 104.691 113.387 104.896 113.387Z" fill="#144A80"/>
<path d="M123.9 108.287C128.152 108.287 130.914 105.457 130.914 100.754C130.914 96.0645 128.125 93.207 123.9 93.207C119.676 93.207 116.887 96.0781 116.887 100.754C116.887 105.457 119.648 108.287 123.9 108.287ZM123.9 105.594C121.74 105.594 120.346 103.844 120.346 100.754C120.346 97.6777 121.754 95.9141 123.9 95.9141C126.061 95.9141 127.455 97.6777 127.455 100.754C127.455 103.844 126.061 105.594 123.9 105.594Z" fill="#144A80"/>
<path d="M145.953 93.5078H142.549V101.889C142.549 103.994 141.332 105.389 139.363 105.389C137.449 105.389 136.438 104.268 136.438 102.189V93.5078H133.033V102.873C133.033 106.223 135.029 108.26 138.174 108.26C140.375 108.26 141.838 107.248 142.604 105.484H142.672V108H145.953V93.5078Z" fill="#144A80"/>
<path d="M148.742 108H152.146V99.5645C152.146 97.5273 153.309 96.2832 155.236 96.2832C155.811 96.2832 156.33 96.3652 156.617 96.4746V93.3984C156.371 93.3438 155.988 93.2617 155.551 93.2617C153.842 93.2617 152.57 94.2734 152.078 96.0371H152.01V93.5078H148.742V108Z" fill="#144A80"/>
<path d="M168.238 108.232C170.098 108.232 171.916 107.262 172.75 105.689H172.818V108H176.1V98.0195C176.1 95.1074 173.762 93.207 170.166 93.207C166.475 93.207 164.164 95.1484 164.014 97.8555H167.172C167.391 96.6523 168.416 95.873 170.029 95.873C171.711 95.873 172.736 96.748 172.736 98.2656V99.3047L168.908 99.5234C165.381 99.7422 163.398 101.287 163.398 103.857C163.398 106.469 165.436 108.232 168.238 108.232ZM169.264 105.662C167.787 105.662 166.803 104.91 166.803 103.721C166.803 102.572 167.746 101.834 169.387 101.725L172.736 101.52V102.627C172.736 104.377 171.191 105.662 169.264 105.662Z" fill="#144A80"/>
<path d="M186.805 93.2617C184.699 93.2617 183.059 94.3281 182.238 96.0098H182.17V93.5078H178.848V112.771H182.252V105.594H182.32C183.113 107.221 184.754 108.232 186.859 108.232C190.496 108.232 192.82 105.375 192.82 100.754C192.82 96.1191 190.482 93.2617 186.805 93.2617ZM185.766 105.443C183.646 105.443 182.238 103.598 182.225 100.754C182.238 97.9375 183.646 96.0645 185.766 96.0645C187.967 96.0645 189.334 97.8965 189.334 100.754C189.334 103.625 187.967 105.443 185.766 105.443Z" fill="#144A80"/>
<path d="M202.965 93.2617C200.859 93.2617 199.219 94.3281 198.398 96.0098H198.33V93.5078H195.008V112.771H198.412V105.594H198.48C199.273 107.221 200.914 108.232 203.02 108.232C206.656 108.232 208.98 105.375 208.98 100.754C208.98 96.1191 206.643 93.2617 202.965 93.2617ZM201.926 105.443C199.807 105.443 198.398 103.598 198.385 100.754C198.398 97.9375 199.807 96.0645 201.926 96.0645C204.127 96.0645 205.494 97.8965 205.494 100.754C205.494 103.625 204.127 105.443 201.926 105.443Z" fill="#144A80"/>
<path d="M211.168 108H214.572V99.5645C214.572 97.5273 215.734 96.2832 217.662 96.2832C218.236 96.2832 218.756 96.3652 219.043 96.4746V93.3984C218.797 93.3438 218.414 93.2617 217.977 93.2617C216.268 93.2617 214.996 94.2734 214.504 96.0371H214.436V93.5078H211.168V108Z" fill="#144A80"/>
<path d="M229.844 103.666C229.475 104.869 228.271 105.662 226.686 105.662C224.457 105.662 223.035 104.104 223.035 101.779V101.574H233.166V100.467C233.166 96.0645 230.596 93.207 226.48 93.207C222.297 93.207 219.645 96.2285 219.645 100.809C219.645 105.43 222.27 108.287 226.617 108.287C230.049 108.287 232.592 106.4 233.029 103.666H229.844ZM226.494 95.8457C228.449 95.8457 229.762 97.2812 229.83 99.332H223.062C223.199 97.3086 224.58 95.8457 226.494 95.8457Z" fill="#144A80"/>
<path d="M248.137 98.6758C247.904 95.627 245.539 93.207 241.711 93.207C237.5 93.207 234.766 96.1191 234.766 100.754C234.766 105.457 237.5 108.287 241.738 108.287C245.375 108.287 247.877 106.154 248.15 102.914H244.938C244.623 104.555 243.502 105.539 241.779 105.539C239.619 105.539 238.225 103.789 238.225 100.754C238.225 97.7734 239.605 95.9688 241.752 95.9688C243.57 95.9688 244.65 97.1309 244.924 98.6758H248.137Z" fill="#144A80"/>
<path d="M251.965 91.3203C253.004 91.3203 253.824 90.4863 253.824 89.4746C253.824 88.4492 253.004 87.6289 251.965 87.6289C250.926 87.6289 250.092 88.4492 250.092 89.4746C250.092 90.4863 250.926 91.3203 251.965 91.3203ZM250.27 108H253.674V93.5078H250.27V108Z" fill="#144A80"/>
<path d="M260.797 108.232C262.656 108.232 264.475 107.262 265.309 105.689H265.377V108H268.658V98.0195C268.658 95.1074 266.32 93.207 262.725 93.207C259.033 93.207 256.723 95.1484 256.572 97.8555H259.73C259.949 96.6523 260.975 95.873 262.588 95.873C264.27 95.873 265.295 96.748 265.295 98.2656V99.3047L261.467 99.5234C257.939 99.7422 255.957 101.287 255.957 103.857C255.957 106.469 257.994 108.232 260.797 108.232ZM261.822 105.662C260.346 105.662 259.361 104.91 259.361 103.721C259.361 102.572 260.305 101.834 261.945 101.725L265.295 101.52V102.627C265.295 104.377 263.75 105.662 261.822 105.662Z" fill="#144A80"/>
<path d="M272.35 90.1172V93.5078H270.271V96.1328H272.35V104.145C272.35 106.961 273.58 108.068 276.711 108.068C277.436 108.068 278.105 108.014 278.475 107.932V105.334C278.256 105.375 277.818 105.402 277.504 105.402C276.301 105.402 275.754 104.855 275.754 103.666V96.1328H278.488V93.5078H275.754V90.1172H272.35Z" fill="#144A80"/>
<path d="M282.59 91.3203C283.629 91.3203 284.449 90.4863 284.449 89.4746C284.449 88.4492 283.629 87.6289 282.59 87.6289C281.551 87.6289 280.717 88.4492 280.717 89.4746C280.717 90.4863 281.551 91.3203 282.59 91.3203ZM280.895 108H284.299V93.5078H280.895V108Z" fill="#144A80"/>
<path d="M293.568 108.287C297.82 108.287 300.582 105.457 300.582 100.754C300.582 96.0645 297.793 93.207 293.568 93.207C289.344 93.207 286.555 96.0781 286.555 100.754C286.555 105.457 289.316 108.287 293.568 108.287ZM293.568 105.594C291.408 105.594 290.014 103.844 290.014 100.754C290.014 97.6777 291.422 95.9141 293.568 95.9141C295.729 95.9141 297.123 97.6777 297.123 100.754C297.123 103.844 295.729 105.594 293.568 105.594Z" fill="#144A80"/>
<path d="M302.77 108H306.174V99.6055C306.174 97.5273 307.418 96.1191 309.373 96.1191C311.314 96.1191 312.271 97.2676 312.271 99.3184V108H315.676V98.6348C315.676 95.2852 313.857 93.2344 310.658 93.2344C308.43 93.2344 306.885 94.2734 306.105 95.9961H306.037V93.5078H302.77V108Z" fill="#144A80"/>
</g>
<g clip-path="url(#clip1)">
<path fill-rule="evenodd" clip-rule="evenodd" d="M672.927 118.733C687.107 129.077 700.426 135.12 702.675 132.23C704.925 129.34 695.253 118.611 681.073 108.267C666.893 97.9227 653.574 91.8797 651.325 94.7697C649.075 97.6597 658.747 108.388 672.927 118.733Z" fill="white"/>
<path fill-rule="evenodd" clip-rule="evenodd" d="M690.713 116.639C692.957 113.707 695.462 100.533 689.499 96.1091C683.535 91.6854 674.41 93.7046 669.117 100.619C663.825 107.534 688.468 119.571 690.713 116.639Z" fill="#E4B051"/>
</g>
<path fill-rule="evenodd" clip-rule="evenodd" d="M501.543 72.0102C503.045 82.5227 517.403 95.7721 526.369 101.326C537.218 108.046 552.629 113.007 562.475 111.523C579.389 108.974 585.7 107.274 597.903 98.7768C610.106 90.2798 666.703 17.3948 579.389 -6.16584C504.364 -26.4101 496.934 39.7531 501.543 72.0102" fill="#89BAE2"/>
<g opacity="0.247721">
<ellipse cx="561.932" cy="18.586" rx="14.5743" ry="14.5825" fill="#B1E2FF" style="mix-blend-mode:multiply"/>
</g>
<g opacity="0.247721">
<ellipse cx="555.596" cy="92.1323" rx="5.70297" ry="5.70619" fill="#B1E2FF" style="mix-blend-mode:multiply"/>
</g>
<g opacity="0.247721">
<ellipse cx="601.22" cy="49.0189" rx="5.70297" ry="5.70619" fill="#B1E2FF" style="mix-blend-mode:multiply"/>
</g>
<g opacity="0.247721">
<ellipse cx="520.11" cy="49.0189" rx="5.70297" ry="5.70619" fill="#B1E2FF" style="mix-blend-mode:multiply"/>
</g>
<g opacity="0.247721">
<ellipse cx="570.804" cy="69.3076" rx="14.5743" ry="14.5825" fill="#B1E2FF" style="mix-blend-mode:multiply"/>
</g>
<path fill-rule="evenodd" clip-rule="evenodd" d="M458.855 113.857L467.615 117.349L467.229 124.683L467.826 140.986L477.411 104.761L481.894 106.511L484.071 124.168L479.548 135.615C479.548 135.615 480.239 142.242 480.797 143.507C481.354 144.771 480.591 147.41 480.591 147.41L490.347 139.878C490.347 139.878 503.458 116.237 504.576 114.651C505.694 113.066 513.659 104 513.659 104L520.341 107.434L514.233 124.702C514.233 124.702 512.752 125.182 512.896 130.333C513.041 135.484 508.386 148.84 508.386 148.84L506.117 152.431L514.272 151.614L520.348 142.863L526.884 137.226L531 143.411C531 143.411 526.717 152.254 526.445 153.476C526.173 154.698 523.566 160.743 523.566 160.743L517.577 167.851L509.774 173.835L507.879 182.183L497.436 183L482.67 179.033L473.213 172.985L463.283 160.115L457.446 144.572L456 132.344L458.855 113.857" fill="#C2DCF1"/>
<path fill-rule="evenodd" clip-rule="evenodd" d="M669.789 7.23868L675.279 9.44861L675.037 14.0902L675.411 24.4089L681.417 1.48139L684.227 2.58955L685.591 13.7643L682.757 21.0096C682.757 21.0096 683.19 25.204 683.539 26.0044C683.889 26.8047 683.411 28.4747 683.411 28.4747L689.524 23.7079C689.524 23.7079 697.741 8.74468 698.441 7.74124C699.142 6.73781 704.133 1 704.133 1L708.321 3.17311L704.493 14.1028C704.493 14.1028 703.564 14.4066 703.655 17.6666C703.746 20.9265 700.829 29.3794 700.829 29.3794L699.407 31.6523L704.517 31.1354L708.325 25.597L712.421 22.0288L715 25.9435C715 25.9435 712.316 31.5405 712.146 32.3139C711.975 33.0872 710.342 36.9135 710.342 36.9135L706.588 41.4119L701.698 45.1994L700.511 50.4829L693.967 51L684.713 48.4891L678.787 44.6612L672.564 36.5157L668.906 26.6784L668 18.9396L669.789 7.23868" fill="#C2DCF1"/>
</g>
<defs>
<clipPath id="clip0">
<rect width="740" height="160" rx="32" fill="white"/>
</clipPath>
<clipPath id="clip1">
<rect width="52" height="43" fill="white" transform="translate(651 92)"/>
</clipPath>
</defs>
</svg>
