<svg width="740" height="160" viewBox="0 0 740 160" fill="none" xmlns="http://www.w3.org/2000/svg">
<rect width="740" height="160" rx="32" fill="#F5EDE5"/>
<mask id="mask0" mask-type="alpha" maskUnits="userSpaceOnUse" x="0" y="0" width="740" height="160">
<rect width="740" height="160" rx="32" fill="white"/>
</mask>
<g mask="url(#mask0)">
<rect x="-42" y="41.96" width="818" height="147" fill="#E1EDED"/>
<path fill-rule="evenodd" clip-rule="evenodd" d="M742.729 14C742.729 14 724.118 14.3803 723.163 16.7099C722.209 19.0396 715.528 27.2868 714.096 29.5776C712.664 31.8683 706.461 36.6256 705.03 39.2873C703.598 41.9483 691.668 58.9001 691.668 58.9001C691.668 58.9001 687.373 69.0067 685.941 70.368C684.51 71.7288 678.306 74.4781 676.875 75.3946C675.443 76.3107 664.533 73.1038 664.533 73.1038L644.902 92.8049C644.902 92.8049 628.2 105.634 625.337 109.757C622.474 113.88 612.93 114.339 609.112 115.255C605.294 116.172 591.933 119.379 591.933 119.379L585.729 126.251C585.729 126.251 674.011 129 680.215 129C686.419 129 742.729 126.251 742.729 126.251V14Z" fill="#AA7262"/>
<path fill-rule="evenodd" clip-rule="evenodd" d="M0 91.0241C0 91.0241 40.1624 90.4212 62.0687 95.2445C83.975 100.068 125.963 100.068 156.997 108.509C188.031 116.95 211.763 119.964 235.496 119.964C259.227 119.964 251.925 118.758 275.657 122.979C299.389 127.199 303.04 127.199 334.074 130.214C365.108 133.228 368.76 130.817 388.841 135.037C408.922 139.258 436.305 141.669 450.909 143.478C465.513 145.287 500.199 147.698 500.199 147.698L549.488 153.125L586 163H3.51401L0 91.0241Z" fill="#C8E0E0"/>
</g>
<path d="M25.0547 60.9805H26.7539C26.7539 59.3984 28.0625 58.207 29.8008 58.207C31.4121 58.207 32.4473 59.3105 32.4473 60.6973C32.4473 61.8691 32.0078 62.6309 30.1035 64.6133L25.1426 69.7891V71H34.4395V69.4375H27.5547V69.3984L30.9043 65.9609C33.4922 63.3047 34.2051 62.1426 34.2051 60.5898C34.2051 58.4512 32.4082 56.6738 29.8008 56.6738C27.0859 56.6738 25.0547 58.5098 25.0547 60.9805Z" fill="#3E2D14"/>
<path d="M40.5332 71H42.2324V64.6328C42.2324 63.2266 43.209 62.1719 44.5566 62.1719C45.8164 62.1719 46.6367 62.9727 46.6367 64.1934V71H48.3359V64.5449C48.3359 63.168 49.2832 62.1719 50.6309 62.1719C51.9688 62.1719 52.7402 62.9922 52.7402 64.3789V71H54.4395V63.9883C54.4395 61.9766 53.1406 60.668 51.1289 60.668C49.7031 60.668 48.5117 61.3906 47.9453 62.6016H47.9062C47.4668 61.3711 46.4414 60.668 45.0547 60.668C43.6875 60.668 42.6523 61.3906 42.1738 62.4648H42.1348V60.8438H40.5332V71Z" fill="#3E2D14"/>
<path d="M57.5449 59.0371C58.1406 59.0371 58.6094 58.5586 58.6094 57.9727C58.6094 57.377 58.1406 56.9082 57.5449 56.9082C56.959 56.9082 56.4805 57.377 56.4805 57.9727C56.4805 58.5586 56.959 59.0371 57.5449 59.0371ZM56.6953 71H58.3945V60.8438H56.6953V71Z" fill="#3E2D14"/>
<path d="M60.6895 71H62.3887V65.0234C62.3887 63.3047 63.4336 62.1719 65.0352 62.1719C66.5977 62.1719 67.3691 63.0703 67.3691 64.7109V71H69.0684V64.4082C69.0684 62.1035 67.7793 60.668 65.5527 60.668C63.9805 60.668 62.8965 61.3711 62.3301 62.4648H62.291V60.8438H60.6895V71Z" fill="#3E2D14"/>
<path d="M71.0605 63.6465C71.0605 65.1113 71.9883 66 73.9023 66.459L75.5137 66.8496C76.6758 67.1328 77.0762 67.5527 77.0762 68.2852C77.0762 69.2031 76.2266 69.7891 74.8496 69.7891C73.4727 69.7891 72.6914 69.2324 72.4863 68.0703H70.7871C70.9824 69.9746 72.4668 71.1758 74.8496 71.1758C77.1152 71.1758 78.7852 69.9258 78.7852 68.1582C78.7852 66.7031 78.043 65.9023 75.9922 65.4043L74.3809 65.0137C73.248 64.7402 72.7305 64.2617 72.7305 63.5586C72.7305 62.6699 73.5508 62.0547 74.791 62.0547C76.041 62.0547 76.8223 62.709 76.9492 63.7734H78.5703C78.502 61.9766 77.0176 60.668 74.791 60.668C72.5938 60.668 71.0605 61.9082 71.0605 63.6465Z" fill="#3E2D14"/>
<path d="M38.6289 102H42.3477L35.3477 82.2715H31.3691L24.3691 102H28.0059L29.6875 96.9004H36.9473L38.6289 102ZM33.2695 85.7578H33.3652L36.1133 94.1797H30.5078L33.2695 85.7578Z" fill="#614111"/>
<path d="M56.4297 92.6758C56.1973 89.627 53.832 87.207 50.0039 87.207C45.793 87.207 43.0586 90.1191 43.0586 94.7539C43.0586 99.457 45.793 102.287 50.0312 102.287C53.668 102.287 56.1699 100.154 56.4434 96.9141H53.2305C52.916 98.5547 51.7949 99.5391 50.0723 99.5391C47.9121 99.5391 46.5176 97.7891 46.5176 94.7539C46.5176 91.7734 47.8984 89.9688 50.0449 89.9688C51.8633 89.9688 52.9434 91.1309 53.2168 92.6758H56.4297Z" fill="#614111"/>
<path d="M71.25 92.6758C71.0176 89.627 68.6523 87.207 64.8242 87.207C60.6133 87.207 57.8789 90.1191 57.8789 94.7539C57.8789 99.457 60.6133 102.287 64.8516 102.287C68.4883 102.287 70.9902 100.154 71.2637 96.9141H68.0508C67.7363 98.5547 66.6152 99.5391 64.8926 99.5391C62.7324 99.5391 61.3379 97.7891 61.3379 94.7539C61.3379 91.7734 62.7188 89.9688 64.8652 89.9688C66.6836 89.9688 67.7637 91.1309 68.0371 92.6758H71.25Z" fill="#614111"/>
<path d="M82.8984 97.666C82.5293 98.8691 81.3262 99.6621 79.7402 99.6621C77.5117 99.6621 76.0898 98.1035 76.0898 95.7793V95.5742H86.2207V94.4668C86.2207 90.0645 83.6504 87.207 79.5352 87.207C75.3516 87.207 72.6992 90.2285 72.6992 94.8086C72.6992 99.4297 75.3242 102.287 79.6719 102.287C83.1035 102.287 85.6465 100.4 86.084 97.666H82.8984ZM79.5488 89.8457C81.5039 89.8457 82.8164 91.2812 82.8848 93.332H76.1172C76.2539 91.3086 77.6348 89.8457 79.5488 89.8457Z" fill="#614111"/>
<path d="M96.3789 87.2617C94.2734 87.2617 92.6328 88.3281 91.8125 90.0098H91.7441V87.5078H88.4219V106.771H91.8262V99.5938H91.8945C92.6875 101.221 94.3281 102.232 96.4336 102.232C100.07 102.232 102.395 99.375 102.395 94.7539C102.395 90.1191 100.057 87.2617 96.3789 87.2617ZM95.3398 99.4434C93.2207 99.4434 91.8125 97.5977 91.7988 94.7539C91.8125 91.9375 93.2207 90.0645 95.3398 90.0645C97.541 90.0645 98.9082 91.8965 98.9082 94.7539C98.9082 97.625 97.541 99.4434 95.3398 99.4434Z" fill="#614111"/>
<path d="M105.525 84.1172V87.5078H103.447V90.1328H105.525V98.1445C105.525 100.961 106.756 102.068 109.887 102.068C110.611 102.068 111.281 102.014 111.65 101.932V99.334C111.432 99.375 110.994 99.4023 110.68 99.4023C109.477 99.4023 108.93 98.8555 108.93 97.666V90.1328H111.664V87.5078H108.93V84.1172H105.525Z" fill="#614111"/>
<path d="M129.191 97.666C128.822 98.8691 127.619 99.6621 126.033 99.6621C123.805 99.6621 122.383 98.1035 122.383 95.7793V95.5742H132.514V94.4668C132.514 90.0645 129.943 87.207 125.828 87.207C121.645 87.207 118.992 90.2285 118.992 94.8086C118.992 99.4297 121.617 102.287 125.965 102.287C129.396 102.287 131.939 100.4 132.377 97.666H129.191ZM125.842 89.8457C127.797 89.8457 129.109 91.2812 129.178 93.332H122.41C122.547 91.3086 123.928 89.8457 125.842 89.8457Z" fill="#614111"/>
<path d="M134.715 102H138.119V93.127C138.119 91.377 139.268 90.1055 140.908 90.1055C142.494 90.1055 143.479 91.1035 143.479 92.7168V102H146.787V93.0449C146.787 91.3086 147.908 90.1055 149.549 90.1055C151.217 90.1055 152.146 91.1172 152.146 92.8945V102H155.551V92.0605C155.551 89.1621 153.678 87.2344 150.82 87.2344C148.729 87.2344 147.006 88.3555 146.309 90.1465H146.227C145.693 88.2871 144.23 87.2344 142.18 87.2344C140.211 87.2344 138.68 88.3418 138.051 90.0234H137.982V87.5078H134.715V102Z" fill="#614111"/>
<path d="M164.697 102.287C168.949 102.287 171.711 99.457 171.711 94.7539C171.711 90.0645 168.922 87.207 164.697 87.207C160.473 87.207 157.684 90.0781 157.684 94.7539C157.684 99.457 160.445 102.287 164.697 102.287ZM164.697 99.5938C162.537 99.5938 161.143 97.8438 161.143 94.7539C161.143 91.6777 162.551 89.9141 164.697 89.9141C166.857 89.9141 168.252 91.6777 168.252 94.7539C168.252 97.8438 166.857 99.5938 164.697 99.5938Z" fill="#614111"/>
<path d="M174.842 84.1172V87.5078H172.764V90.1328H174.842V98.1445C174.842 100.961 176.072 102.068 179.203 102.068C179.928 102.068 180.598 102.014 180.967 101.932V99.334C180.748 99.375 180.311 99.4023 179.996 99.4023C178.793 99.4023 178.246 98.8555 178.246 97.666V90.1328H180.98V87.5078H178.246V84.1172H174.842Z" fill="#614111"/>
<path d="M185.082 85.3203C186.121 85.3203 186.941 84.4863 186.941 83.4746C186.941 82.4492 186.121 81.6289 185.082 81.6289C184.043 81.6289 183.209 82.4492 183.209 83.4746C183.209 84.4863 184.043 85.3203 185.082 85.3203ZM183.387 102H186.791V87.5078H183.387V102Z" fill="#614111"/>
<path d="M196.061 102.287C200.312 102.287 203.074 99.457 203.074 94.7539C203.074 90.0645 200.285 87.207 196.061 87.207C191.836 87.207 189.047 90.0781 189.047 94.7539C189.047 99.457 191.809 102.287 196.061 102.287ZM196.061 99.5938C193.9 99.5938 192.506 97.8438 192.506 94.7539C192.506 91.6777 193.914 89.9141 196.061 89.9141C198.221 89.9141 199.615 91.6777 199.615 94.7539C199.615 97.8438 198.221 99.5938 196.061 99.5938Z" fill="#614111"/>
<path d="M205.262 102H208.666V93.6055C208.666 91.5273 209.91 90.1191 211.865 90.1191C213.807 90.1191 214.764 91.2676 214.764 93.3184V102H218.168V92.6348C218.168 89.2852 216.35 87.2344 213.15 87.2344C210.922 87.2344 209.377 88.2734 208.598 89.9961H208.529V87.5078H205.262V102Z" fill="#614111"/>
<path d="M220.643 91.6641C220.643 93.8105 222.037 95.1777 224.812 95.793L227.219 96.3262C228.736 96.668 229.256 97.1602 229.256 98.0352C229.256 99.1152 228.23 99.7988 226.576 99.7988C224.854 99.7988 223.883 99.0879 223.623 97.6797H220.273C220.547 100.482 222.789 102.287 226.576 102.287C230.131 102.287 232.646 100.441 232.646 97.707C232.646 95.6016 231.484 94.4395 228.477 93.7695L226.07 93.2363C224.553 92.8945 223.951 92.3203 223.951 91.4863C223.951 90.4199 224.949 89.709 226.453 89.709C228.025 89.709 228.996 90.543 229.133 91.8555H232.305C232.223 89.1074 229.98 87.207 226.453 87.207C222.953 87.207 220.643 89.0117 220.643 91.6641Z" fill="#614111"/>
</svg>
