<svg width="740" height="160" viewBox="0 0 740 160" fill="none" xmlns="http://www.w3.org/2000/svg">
<rect width="740" height="160" rx="32" fill="#E5EFDB"/>
<mask id="mask0" mask-type="alpha" maskUnits="userSpaceOnUse" x="0" y="0" width="740" height="160">
<rect width="740" height="160" rx="32" fill="white"/>
</mask>
<g mask="url(#mask0)">
<path d="M28.0137 64.4668H29.7812C31.7637 64.4668 33.0039 65.4434 32.9941 67.1816C32.9844 68.6562 31.7441 69.7109 29.8887 69.7109C28.0137 69.7109 26.6953 68.7637 26.5879 67.2695H24.8984C25.0254 69.6035 26.9688 71.2344 29.8887 71.2344C32.6523 71.2344 34.7812 69.5449 34.7812 67.123C34.7812 65.1211 33.3848 63.8418 31.334 63.666V63.627C33.1016 63.2559 34.3223 62.0547 34.3223 60.3066C34.3223 58.2949 32.6914 56.6738 29.8691 56.6738C27.2324 56.6738 25.377 58.207 25.1816 60.5996H26.8711C26.9785 59.0762 28.209 58.1973 29.8691 58.1973C31.6758 58.1973 32.5547 59.1445 32.5547 60.541C32.5547 61.9473 31.3828 62.9824 29.7031 62.9824H28.0137V64.4668Z" fill="#2E3D1F"/>
<path d="M41.041 71H42.7402V64.6328C42.7402 63.2266 43.7168 62.1719 45.0645 62.1719C46.3242 62.1719 47.1445 62.9727 47.1445 64.1934V71H48.8438V64.5449C48.8438 63.168 49.791 62.1719 51.1387 62.1719C52.4766 62.1719 53.248 62.9922 53.248 64.3789V71H54.9473V63.9883C54.9473 61.9766 53.6484 60.668 51.6367 60.668C50.2109 60.668 49.0195 61.3906 48.4531 62.6016H48.4141C47.9746 61.3711 46.9492 60.668 45.5625 60.668C44.1953 60.668 43.1602 61.3906 42.6816 62.4648H42.6426V60.8438H41.041V71Z" fill="#2E3D1F"/>
<path d="M58.0527 59.0371C58.6484 59.0371 59.1172 58.5586 59.1172 57.9727C59.1172 57.377 58.6484 56.9082 58.0527 56.9082C57.4668 56.9082 56.9883 57.377 56.9883 57.9727C56.9883 58.5586 57.4668 59.0371 58.0527 59.0371ZM57.2031 71H58.9023V60.8438H57.2031V71Z" fill="#2E3D1F"/>
<path d="M61.1973 71H62.8965V65.0234C62.8965 63.3047 63.9414 62.1719 65.543 62.1719C67.1055 62.1719 67.877 63.0703 67.877 64.7109V71H69.5762V64.4082C69.5762 62.1035 68.2871 60.668 66.0605 60.668C64.4883 60.668 63.4043 61.3711 62.8379 62.4648H62.7988V60.8438H61.1973V71Z" fill="#2E3D1F"/>
<path d="M71.5684 63.6465C71.5684 65.1113 72.4961 66 74.4102 66.459L76.0215 66.8496C77.1836 67.1328 77.584 67.5527 77.584 68.2852C77.584 69.2031 76.7344 69.7891 75.3574 69.7891C73.9805 69.7891 73.1992 69.2324 72.9941 68.0703H71.2949C71.4902 69.9746 72.9746 71.1758 75.3574 71.1758C77.623 71.1758 79.293 69.9258 79.293 68.1582C79.293 66.7031 78.5508 65.9023 76.5 65.4043L74.8887 65.0137C73.7559 64.7402 73.2383 64.2617 73.2383 63.5586C73.2383 62.6699 74.0586 62.0547 75.2988 62.0547C76.5488 62.0547 77.3301 62.709 77.457 63.7734H79.0781C79.0098 61.9766 77.5254 60.668 75.2988 60.668C73.1016 60.668 71.5684 61.9082 71.5684 63.6465Z" fill="#2E3D1F"/>
<path d="M34.0762 102V85.252H39.9688V82.2715H24.6562V85.252H30.5625V102H34.0762Z" fill="#215700"/>
<path d="M42.8398 102.232C44.6992 102.232 46.5176 101.262 47.3516 99.6895H47.4199V102H50.7012V92.0195C50.7012 89.1074 48.3633 87.207 44.7676 87.207C41.0762 87.207 38.7656 89.1484 38.6152 91.8555H41.7734C41.9922 90.6523 43.0176 89.873 44.6309 89.873C46.3125 89.873 47.3379 90.748 47.3379 92.2656V93.3047L43.5098 93.5234C39.9824 93.7422 38 95.2871 38 97.8574C38 100.469 40.0371 102.232 42.8398 102.232ZM43.8652 99.6621C42.3887 99.6621 41.4043 98.9102 41.4043 97.7207C41.4043 96.5723 42.3477 95.834 43.9883 95.7246L47.3379 95.5195V96.627C47.3379 98.377 45.793 99.6621 43.8652 99.6621Z" fill="#215700"/>
<path d="M56.9902 93.5508H56.9492V82.2715H53.5449V102H56.9492V96.9688L58.0977 95.8066L62.6777 102H66.6152L60.5723 93.7422L66.3691 87.5078H62.4453L56.9902 93.5508Z" fill="#215700"/>
<path d="M76.8828 97.666C76.5137 98.8691 75.3105 99.6621 73.7246 99.6621C71.4961 99.6621 70.0742 98.1035 70.0742 95.7793V95.5742H80.2051V94.4668C80.2051 90.0645 77.6348 87.207 73.5195 87.207C69.3359 87.207 66.6836 90.2285 66.6836 94.8086C66.6836 99.4297 69.3086 102.287 73.6562 102.287C77.0879 102.287 79.6309 100.4 80.0684 97.666H76.8828ZM73.5332 89.8457C75.4883 89.8457 76.8008 91.2812 76.8691 93.332H70.1016C70.2383 91.3086 71.6191 89.8457 73.5332 89.8457Z" fill="#215700"/>
<path d="M92.2773 102.232C94.1367 102.232 95.9551 101.262 96.7891 99.6895H96.8574V102H100.139V92.0195C100.139 89.1074 97.8008 87.207 94.2051 87.207C90.5137 87.207 88.2031 89.1484 88.0527 91.8555H91.2109C91.4297 90.6523 92.4551 89.873 94.0684 89.873C95.75 89.873 96.7754 90.748 96.7754 92.2656V93.3047L92.9473 93.5234C89.4199 93.7422 87.4375 95.2871 87.4375 97.8574C87.4375 100.469 89.4746 102.232 92.2773 102.232ZM93.3027 99.6621C91.8262 99.6621 90.8418 98.9102 90.8418 97.7207C90.8418 96.5723 91.7852 95.834 93.4258 95.7246L96.7754 95.5195V96.627C96.7754 98.377 95.2305 99.6621 93.3027 99.6621Z" fill="#215700"/>
<path d="M116.6 102.232C120.264 102.232 122.574 99.3887 122.574 94.7539C122.574 90.1191 120.25 87.2617 116.6 87.2617C114.549 87.2617 112.895 88.3008 112.074 89.9961H111.992V82.2715H108.588V102H111.924V99.5254H111.992C112.84 101.207 114.467 102.232 116.6 102.232ZM115.547 90.0645C117.721 90.0645 119.088 91.8828 119.088 94.7539C119.088 97.6387 117.734 99.4434 115.547 99.4434C113.441 99.4434 111.979 97.5977 111.979 94.7539C111.979 91.9375 113.441 90.0645 115.547 90.0645Z" fill="#215700"/>
<path d="M124.789 102H128.193V93.5645C128.193 91.5273 129.355 90.2832 131.283 90.2832C131.857 90.2832 132.377 90.3652 132.664 90.4746V87.3984C132.418 87.3438 132.035 87.2617 131.598 87.2617C129.889 87.2617 128.617 88.2734 128.125 90.0371H128.057V87.5078H124.789V102Z" fill="#215700"/>
<path d="M143.465 97.666C143.096 98.8691 141.893 99.6621 140.307 99.6621C138.078 99.6621 136.656 98.1035 136.656 95.7793V95.5742H146.787V94.4668C146.787 90.0645 144.217 87.207 140.102 87.207C135.918 87.207 133.266 90.2285 133.266 94.8086C133.266 99.4297 135.891 102.287 140.238 102.287C143.67 102.287 146.213 100.4 146.65 97.666H143.465ZM140.115 89.8457C142.07 89.8457 143.383 91.2812 143.451 93.332H136.684C136.82 91.3086 138.201 89.8457 140.115 89.8457Z" fill="#215700"/>
<path d="M153.254 102.232C155.113 102.232 156.932 101.262 157.766 99.6895H157.834V102H161.115V92.0195C161.115 89.1074 158.777 87.207 155.182 87.207C151.49 87.207 149.18 89.1484 149.029 91.8555H152.188C152.406 90.6523 153.432 89.873 155.045 89.873C156.727 89.873 157.752 90.748 157.752 92.2656V93.3047L153.924 93.5234C150.396 93.7422 148.414 95.2871 148.414 97.8574C148.414 100.469 150.451 102.232 153.254 102.232ZM154.279 99.6621C152.803 99.6621 151.818 98.9102 151.818 97.7207C151.818 96.5723 152.762 95.834 154.402 95.7246L157.752 95.5195V96.627C157.752 98.377 156.207 99.6621 154.279 99.6621Z" fill="#215700"/>
<path d="M164.807 84.1172V87.5078H162.729V90.1328H164.807V98.1445C164.807 100.961 166.037 102.068 169.168 102.068C169.893 102.068 170.562 102.014 170.932 101.932V99.334C170.713 99.375 170.275 99.4023 169.961 99.4023C168.758 99.4023 168.211 98.8555 168.211 97.666V90.1328H170.945V87.5078H168.211V84.1172H164.807Z" fill="#215700"/>
<path d="M173.365 102H176.77V93.6738C176.77 91.541 178.014 90.1191 180.064 90.1191C182.033 90.1191 183.045 91.3359 183.045 93.3594V102H186.449V92.6621C186.449 89.3398 184.576 87.2344 181.377 87.2344C179.176 87.2344 177.576 88.2324 176.797 89.9961H176.729V82.2715H173.365V102Z" fill="#215700"/>
<path fill-rule="evenodd" clip-rule="evenodd" d="M537.349 170.286C546.601 173.211 555.407 148.719 560.57 141.882C566.004 134.687 572.341 125.491 574.56 118.193C578.524 105.154 597.811 62.5094 606.795 54.149C615.779 45.7889 620.271 41.6086 624.836 43.1809C629.402 44.7531 609.258 85.0206 604.462 97.599C599.664 110.178 582.249 137.675 570.463 153.053C564.969 160.222 562.06 167.131 560.521 172.465C559.762 175.096 563.591 177.194 565.407 175.143L569.449 170.579L580.452 158.576L600.035 138.94C600.035 138.94 615.052 117.733 620.706 107.532C626.361 97.3306 645.614 84.1766 656.287 78.6537C666.961 73.1313 670.266 73.0544 676.068 74.3588C681.87 75.6624 671.749 91.961 669.326 96.3331C666.903 100.705 623.599 139.592 620.747 142.775C617.895 145.958 577.798 177.099 573.282 179.361C572.082 179.962 571.291 181.047 570.778 182.316C569.329 185.898 573.316 189.883 577.298 188.832L579.182 188.335L582.867 185.612L594.752 177.904L618.068 159.38C618.068 159.38 654.053 129.774 655.265 127.588C656.476 125.402 680.02 106.464 688.826 102.354C699.096 97.56 712.291 95.3353 712.291 95.3353L710.75 104.002L687.936 129.467C687.936 129.467 654.044 161.183 646.321 171.192C638.599 181.201 586.921 211.651 586.921 211.651L576.229 216.894C573.811 218.079 574.137 221.474 576.793 222.764L587.06 227.752C587.06 227.752 597.388 222.197 600.265 220.932C603.141 219.666 614.202 228.16 628.205 224.479C642.208 220.797 652.783 211.748 654.878 215.268C655.723 216.687 631.897 238.419 629.449 240.873C627.001 243.328 605.556 246.703 584.465 245.514C563.374 244.326 549.981 231.21 534.307 220.14C518.633 209.068 502.855 133.764 505.278 129.392C507.701 125.021 512.63 90.6207 514.551 79.3076C516.471 67.9943 546.077 24.3905 548.525 21.936C550.973 19.4814 558.144 15.2352 558.144 15.2352L550.313 32.4437C550.313 32.4437 526.856 104.196 525.718 112.135C524.833 118.313 526.755 129.213 527.651 133.744C527.902 135.009 528.407 136.24 525.268 147.669C524.896 149.024 525.174 150.53 526.038 151.811L529.311 156.667C530.509 158.443 531.312 160.395 531.668 162.394L533.451 172.414L537.349 170.286Z" fill="#4CA56F"/>
</g>
</svg>
