<svg width="740" height="160" viewBox="0 0 740 160" fill="none" xmlns="http://www.w3.org/2000/svg">
<rect width="740" height="160" rx="32" fill="#DBF0F1"/>
<mask id="mask0" mask-type="alpha" maskUnits="userSpaceOnUse" x="0" y="0" width="740" height="160">
<rect width="740" height="160" rx="32" fill="white"/>
</mask>
<g mask="url(#mask0)">
<path d="M25.0547 60.9805H26.7539C26.7539 59.3984 28.0625 58.207 29.8008 58.207C31.4121 58.207 32.4473 59.3105 32.4473 60.6973C32.4473 61.8691 32.0078 62.6309 30.1035 64.6133L25.1426 69.7891V71H34.4395V69.4375H27.5547V69.3984L30.9043 65.9609C33.4922 63.3047 34.2051 62.1426 34.2051 60.5898C34.2051 58.4512 32.4082 56.6738 29.8008 56.6738C27.0859 56.6738 25.0547 58.5098 25.0547 60.9805Z" fill="#1F404B"/>
<path d="M40.5332 71H42.2324V64.6328C42.2324 63.2266 43.209 62.1719 44.5566 62.1719C45.8164 62.1719 46.6367 62.9727 46.6367 64.1934V71H48.3359V64.5449C48.3359 63.168 49.2832 62.1719 50.6309 62.1719C51.9688 62.1719 52.7402 62.9922 52.7402 64.3789V71H54.4395V63.9883C54.4395 61.9766 53.1406 60.668 51.1289 60.668C49.7031 60.668 48.5117 61.3906 47.9453 62.6016H47.9062C47.4668 61.3711 46.4414 60.668 45.0547 60.668C43.6875 60.668 42.6523 61.3906 42.1738 62.4648H42.1348V60.8438H40.5332V71Z" fill="#1F404B"/>
<path d="M57.5449 59.0371C58.1406 59.0371 58.6094 58.5586 58.6094 57.9727C58.6094 57.377 58.1406 56.9082 57.5449 56.9082C56.959 56.9082 56.4805 57.377 56.4805 57.9727C56.4805 58.5586 56.959 59.0371 57.5449 59.0371ZM56.6953 71H58.3945V60.8438H56.6953V71Z" fill="#1F404B"/>
<path d="M60.6895 71H62.3887V65.0234C62.3887 63.3047 63.4336 62.1719 65.0352 62.1719C66.5977 62.1719 67.3691 63.0703 67.3691 64.7109V71H69.0684V64.4082C69.0684 62.1035 67.7793 60.668 65.5527 60.668C63.9805 60.668 62.8965 61.3711 62.3301 62.4648H62.291V60.8438H60.6895V71Z" fill="#1F404B"/>
<path d="M71.0605 63.6465C71.0605 65.1113 71.9883 66 73.9023 66.459L75.5137 66.8496C76.6758 67.1328 77.0762 67.5527 77.0762 68.2852C77.0762 69.2031 76.2266 69.7891 74.8496 69.7891C73.4727 69.7891 72.6914 69.2324 72.4863 68.0703H70.7871C70.9824 69.9746 72.4668 71.1758 74.8496 71.1758C77.1152 71.1758 78.7852 69.9258 78.7852 68.1582C78.7852 66.7031 78.043 65.9023 75.9922 65.4043L74.3809 65.0137C73.248 64.7402 72.7305 64.2617 72.7305 63.5586C72.7305 62.6699 73.5508 62.0547 74.791 62.0547C76.041 62.0547 76.8223 62.709 76.9492 63.7734H78.5703C78.502 61.9766 77.0176 60.668 74.791 60.668C72.5938 60.668 71.0605 61.9082 71.0605 63.6465Z" fill="#1F404B"/>
<path d="M29.2637 102V93.9473H37.5352V91.0762H29.2637V85.252H38.3145V82.2715H25.7363V102H29.2637Z" fill="#00506C"/>
<path d="M49.6758 97.666C49.3066 98.8691 48.1035 99.6621 46.5176 99.6621C44.2891 99.6621 42.8672 98.1035 42.8672 95.7793V95.5742H52.998V94.4668C52.998 90.0645 50.4277 87.207 46.3125 87.207C42.1289 87.207 39.4766 90.2285 39.4766 94.8086C39.4766 99.4297 42.1016 102.287 46.4492 102.287C49.8809 102.287 52.4238 100.4 52.8613 97.666H49.6758ZM46.3262 89.8457C48.2812 89.8457 49.5938 91.2812 49.6621 93.332H42.8945C43.0312 91.3086 44.4121 89.8457 46.3262 89.8457Z" fill="#00506C"/>
<path d="M64.7969 97.666C64.4277 98.8691 63.2246 99.6621 61.6387 99.6621C59.4102 99.6621 57.9883 98.1035 57.9883 95.7793V95.5742H68.1191V94.4668C68.1191 90.0645 65.5488 87.207 61.4336 87.207C57.25 87.207 54.5977 90.2285 54.5977 94.8086C54.5977 99.4297 57.2227 102.287 61.5703 102.287C65.002 102.287 67.5449 100.4 67.9824 97.666H64.7969ZM61.4473 89.8457C63.4023 89.8457 64.7148 91.2812 64.7832 93.332H58.0156C58.1523 91.3086 59.5332 89.8457 61.4473 89.8457Z" fill="#00506C"/>
<path d="M70.416 102H73.8203V82.2715H70.416V102Z" fill="#00506C"/>
<path d="M95.0938 92.6758C94.8613 89.627 92.4961 87.207 88.668 87.207C84.457 87.207 81.7227 90.1191 81.7227 94.7539C81.7227 99.457 84.457 102.287 88.6953 102.287C92.332 102.287 94.834 100.154 95.1074 96.9141H91.8945C91.5801 98.5547 90.459 99.5391 88.7363 99.5391C86.5762 99.5391 85.1816 97.7891 85.1816 94.7539C85.1816 91.7734 86.5625 89.9688 88.709 89.9688C90.5273 89.9688 91.6074 91.1309 91.8809 92.6758H95.0938Z" fill="#00506C"/>
<path d="M103.557 102.287C107.809 102.287 110.57 99.457 110.57 94.7539C110.57 90.0645 107.781 87.207 103.557 87.207C99.332 87.207 96.543 90.0781 96.543 94.7539C96.543 99.457 99.3047 102.287 103.557 102.287ZM103.557 99.5938C101.396 99.5938 100.002 97.8438 100.002 94.7539C100.002 91.6777 101.41 89.9141 103.557 89.9141C105.717 89.9141 107.111 91.6777 107.111 94.7539C107.111 97.8438 105.717 99.5938 103.557 99.5938Z" fill="#00506C"/>
<path d="M112.758 102H116.162V93.127C116.162 91.377 117.311 90.1055 118.951 90.1055C120.537 90.1055 121.521 91.1035 121.521 92.7168V102H124.83V93.0449C124.83 91.3086 125.951 90.1055 127.592 90.1055C129.26 90.1055 130.189 91.1172 130.189 92.8945V102H133.594V92.0605C133.594 89.1621 131.721 87.2344 128.863 87.2344C126.771 87.2344 125.049 88.3555 124.352 90.1465H124.27C123.736 88.2871 122.273 87.2344 120.223 87.2344C118.254 87.2344 116.723 88.3418 116.094 90.0234H116.025V87.5078H112.758V102Z" fill="#00506C"/>
<path d="M144.285 87.2617C142.18 87.2617 140.539 88.3281 139.719 90.0098H139.65V87.5078H136.328V106.771H139.732V99.5938H139.801C140.594 101.221 142.234 102.232 144.34 102.232C147.977 102.232 150.301 99.375 150.301 94.7539C150.301 90.1191 147.963 87.2617 144.285 87.2617ZM143.246 99.4434C141.127 99.4434 139.719 97.5977 139.705 94.7539C139.719 91.9375 141.127 90.0645 143.246 90.0645C145.447 90.0645 146.814 91.8965 146.814 94.7539C146.814 97.625 145.447 99.4434 143.246 99.4434Z" fill="#00506C"/>
<path d="M156.754 102.232C158.613 102.232 160.432 101.262 161.266 99.6895H161.334V102H164.615V92.0195C164.615 89.1074 162.277 87.207 158.682 87.207C154.99 87.207 152.68 89.1484 152.529 91.8555H155.688C155.906 90.6523 156.932 89.873 158.545 89.873C160.227 89.873 161.252 90.748 161.252 92.2656V93.3047L157.424 93.5234C153.896 93.7422 151.914 95.2871 151.914 97.8574C151.914 100.469 153.951 102.232 156.754 102.232ZM157.779 99.6621C156.303 99.6621 155.318 98.9102 155.318 97.7207C155.318 96.5723 156.262 95.834 157.902 95.7246L161.252 95.5195V96.627C161.252 98.377 159.707 99.6621 157.779 99.6621Z" fill="#00506C"/>
<path d="M167.104 91.6641C167.104 93.8105 168.498 95.1777 171.273 95.793L173.68 96.3262C175.197 96.668 175.717 97.1602 175.717 98.0352C175.717 99.1152 174.691 99.7988 173.037 99.7988C171.314 99.7988 170.344 99.0879 170.084 97.6797H166.734C167.008 100.482 169.25 102.287 173.037 102.287C176.592 102.287 179.107 100.441 179.107 97.707C179.107 95.6016 177.945 94.4395 174.938 93.7695L172.531 93.2363C171.014 92.8945 170.412 92.3203 170.412 91.4863C170.412 90.4199 171.41 89.709 172.914 89.709C174.486 89.709 175.457 90.543 175.594 91.8555H178.766C178.684 89.1074 176.441 87.207 172.914 87.207C169.414 87.207 167.104 89.0117 167.104 91.6641Z" fill="#00506C"/>
<path d="M181.021 91.6641C181.021 93.8105 182.416 95.1777 185.191 95.793L187.598 96.3262C189.115 96.668 189.635 97.1602 189.635 98.0352C189.635 99.1152 188.609 99.7988 186.955 99.7988C185.232 99.7988 184.262 99.0879 184.002 97.6797H180.652C180.926 100.482 183.168 102.287 186.955 102.287C190.51 102.287 193.025 100.441 193.025 97.707C193.025 95.6016 191.863 94.4395 188.855 93.7695L186.449 93.2363C184.932 92.8945 184.33 92.3203 184.33 91.4863C184.33 90.4199 185.328 89.709 186.832 89.709C188.404 89.709 189.375 90.543 189.512 91.8555H192.684C192.602 89.1074 190.359 87.207 186.832 87.207C183.332 87.207 181.021 89.0117 181.021 91.6641Z" fill="#00506C"/>
<path d="M196.977 85.3203C198.016 85.3203 198.836 84.4863 198.836 83.4746C198.836 82.4492 198.016 81.6289 196.977 81.6289C195.938 81.6289 195.104 82.4492 195.104 83.4746C195.104 84.4863 195.938 85.3203 196.977 85.3203ZM195.281 102H198.686V87.5078H195.281V102Z" fill="#00506C"/>
<path d="M207.955 102.287C212.207 102.287 214.969 99.457 214.969 94.7539C214.969 90.0645 212.18 87.207 207.955 87.207C203.73 87.207 200.941 90.0781 200.941 94.7539C200.941 99.457 203.703 102.287 207.955 102.287ZM207.955 99.5938C205.795 99.5938 204.4 97.8438 204.4 94.7539C204.4 91.6777 205.809 89.9141 207.955 89.9141C210.115 89.9141 211.51 91.6777 211.51 94.7539C211.51 97.8438 210.115 99.5938 207.955 99.5938Z" fill="#00506C"/>
<path d="M217.156 102H220.561V93.6055C220.561 91.5273 221.805 90.1191 223.76 90.1191C225.701 90.1191 226.658 91.2676 226.658 93.3184V102H230.062V92.6348C230.062 89.2852 228.244 87.2344 225.045 87.2344C222.816 87.2344 221.271 88.2734 220.492 89.9961H220.424V87.5078H217.156V102Z" fill="#00506C"/>
<path d="M239.346 102H242.75V90.1328H245.594V87.5488H242.695V86.3594C242.695 85.1836 243.283 84.5684 244.582 84.5684C244.979 84.5684 245.375 84.6094 245.662 84.6504V82.2715C245.238 82.1895 244.5 82.1211 243.83 82.1211C240.686 82.1211 239.346 83.4473 239.346 86.2637V87.5488H237.363V90.1328H239.346V102Z" fill="#00506C"/>
<path d="M253.729 102.287C257.98 102.287 260.742 99.457 260.742 94.7539C260.742 90.0645 257.953 87.207 253.729 87.207C249.504 87.207 246.715 90.0781 246.715 94.7539C246.715 99.457 249.477 102.287 253.729 102.287ZM253.729 99.5938C251.568 99.5938 250.174 97.8438 250.174 94.7539C250.174 91.6777 251.582 89.9141 253.729 89.9141C255.889 89.9141 257.283 91.6777 257.283 94.7539C257.283 97.8438 255.889 99.5938 253.729 99.5938Z" fill="#00506C"/>
<path d="M262.93 102H266.334V93.5645C266.334 91.5273 267.496 90.2832 269.424 90.2832C269.998 90.2832 270.518 90.3652 270.805 90.4746V87.3984C270.559 87.3438 270.176 87.2617 269.738 87.2617C268.029 87.2617 266.758 88.2734 266.266 90.0371H266.197V87.5078H262.93V102Z" fill="#00506C"/>
<path d="M284.572 102.287C288.824 102.287 291.586 99.457 291.586 94.7539C291.586 90.0645 288.797 87.207 284.572 87.207C280.348 87.207 277.559 90.0781 277.559 94.7539C277.559 99.457 280.32 102.287 284.572 102.287ZM284.572 99.5938C282.412 99.5938 281.018 97.8438 281.018 94.7539C281.018 91.6777 282.426 89.9141 284.572 89.9141C286.732 89.9141 288.127 91.6777 288.127 94.7539C288.127 97.8438 286.732 99.5938 284.572 99.5938Z" fill="#00506C"/>
<path d="M294.717 84.1172V87.5078H292.639V90.1328H294.717V98.1445C294.717 100.961 295.947 102.068 299.078 102.068C299.803 102.068 300.473 102.014 300.842 101.932V99.334C300.623 99.375 300.186 99.4023 299.871 99.4023C298.668 99.4023 298.121 98.8555 298.121 97.666V90.1328H300.855V87.5078H298.121V84.1172H294.717Z" fill="#00506C"/>
<path d="M303.275 102H306.68V93.6738C306.68 91.541 307.924 90.1191 309.975 90.1191C311.943 90.1191 312.955 91.3359 312.955 93.3594V102H316.359V92.6621C316.359 89.3398 314.486 87.2344 311.287 87.2344C309.086 87.2344 307.486 88.2324 306.707 89.9961H306.639V82.2715H303.275V102Z" fill="#00506C"/>
<path d="M328.691 97.666C328.322 98.8691 327.119 99.6621 325.533 99.6621C323.305 99.6621 321.883 98.1035 321.883 95.7793V95.5742H332.014V94.4668C332.014 90.0645 329.443 87.207 325.328 87.207C321.145 87.207 318.492 90.2285 318.492 94.8086C318.492 99.4297 321.117 102.287 325.465 102.287C328.896 102.287 331.439 100.4 331.877 97.666H328.691ZM325.342 89.8457C327.297 89.8457 328.609 91.2812 328.678 93.332H321.91C322.047 91.3086 323.428 89.8457 325.342 89.8457Z" fill="#00506C"/>
<path d="M334.215 102H337.619V93.5645C337.619 91.5273 338.781 90.2832 340.709 90.2832C341.283 90.2832 341.803 90.3652 342.09 90.4746V87.3984C341.844 87.3438 341.461 87.2617 341.023 87.2617C339.314 87.2617 338.043 88.2734 337.551 90.0371H337.482V87.5078H334.215V102Z" fill="#00506C"/>
<path d="M343.58 91.6641C343.58 93.8105 344.975 95.1777 347.75 95.793L350.156 96.3262C351.674 96.668 352.193 97.1602 352.193 98.0352C352.193 99.1152 351.168 99.7988 349.514 99.7988C347.791 99.7988 346.82 99.0879 346.561 97.6797H343.211C343.484 100.482 345.727 102.287 349.514 102.287C353.068 102.287 355.584 100.441 355.584 97.707C355.584 95.6016 354.422 94.4395 351.414 93.7695L349.008 93.2363C347.49 92.8945 346.889 92.3203 346.889 91.4863C346.889 90.4199 347.887 89.709 349.391 89.709C350.963 89.709 351.934 90.543 352.07 91.8555H355.242C355.16 89.1074 352.918 87.207 349.391 87.207C345.891 87.207 343.58 89.0117 343.58 91.6641Z" fill="#00506C"/>
<path opacity="0.7" fill-rule="evenodd" clip-rule="evenodd" d="M640.603 30.4341C641.444 36.1336 649.488 43.3172 654.512 46.3285C660.589 49.9718 669.223 52.6614 674.739 51.857C684.215 50.4748 687.751 49.5535 694.587 44.9464C701.424 40.3392 733.131 0.822748 684.215 -11.951C642.183 -22.9271 638.021 12.945 640.603 30.4341" fill="#FCCC99"/>
<path opacity="0.920317" fill-rule="evenodd" clip-rule="evenodd" d="M441 47C441 47 516.889 88.4203 531.828 87.4497C546.767 86.4795 550.673 73.4519 560.055 85.4337C569.436 97.4151 568.833 110.593 579.866 122.65C590.899 134.707 653.349 180.467 653.349 180.467C653.349 180.467 584.965 155.895 575.507 145.561C566.051 135.226 578.283 157.242 576.406 162.108C574.528 166.975 510.125 127.728 512.153 119.567C514.182 111.406 533.774 117.25 533.774 117.25C533.774 117.25 451.204 77.1768 441 47" fill="#4888BD"/>
<path opacity="0.4" fill-rule="evenodd" clip-rule="evenodd" d="M606.459 43C606.459 43 614.321 47.3447 615.869 47.2428C617.417 47.1411 617.822 45.7746 618.793 47.0314C619.766 48.2885 619.703 49.6707 620.846 50.9353C621.989 52.1999 628.459 57 628.459 57C628.459 57 621.374 54.4222 620.395 53.3384C619.415 52.2543 620.682 54.5636 620.487 55.074C620.293 55.5845 613.62 51.4678 613.831 50.6117C614.041 49.756 616.071 50.3691 616.071 50.3691C616.071 50.3691 607.516 46.1651 606.459 43" fill="#61A1D6"/>
<path opacity="0.4" fill-rule="evenodd" clip-rule="evenodd" d="M620.251 92.2978C621.891 89.8351 624.353 83.2677 627.634 89.8351C630.916 96.4018 631.736 98.0445 644.862 95.5812C657.988 93.1185 642.401 103.791 637.478 105.433C632.556 107.074 637.478 112 637.478 112L625.173 107.074C625.173 107.074 609.586 98.8645 613.688 97.2232C617.79 95.5812 622.712 98.0445 622.712 98.0445L620.251 92.2978Z" fill="#61A1D6"/>
</g>
</svg>
