<svg width="740" height="160" viewBox="0 0 740 160" fill="none" xmlns="http://www.w3.org/2000/svg">
<rect width="740" height="160" rx="32" fill="#FDE0D6"/>
<mask id="mask0" mask-type="alpha" maskUnits="userSpaceOnUse" x="0" y="0" width="740" height="160">
<rect width="740" height="160" rx="32" fill="white"/>
</mask>
<g mask="url(#mask0)">
<path d="M31.8418 71H33.541V68.0703H35.5332V66.5273H33.541V56.9082H30.9434C27.6133 61.6836 25.9629 64.252 24.7617 66.4785V68.0703H31.8418V71ZM26.5 66.4883C27.6133 64.5352 29.1465 62.1816 31.8125 58.373H31.8418V66.5273H26.5V66.4883Z" fill="#281414"/>
<path d="M41.2949 71H42.9941V64.6328C42.9941 63.2266 43.9707 62.1719 45.3184 62.1719C46.5781 62.1719 47.3984 62.9727 47.3984 64.1934V71H49.0977V64.5449C49.0977 63.168 50.0449 62.1719 51.3926 62.1719C52.7305 62.1719 53.502 62.9922 53.502 64.3789V71H55.2012V63.9883C55.2012 61.9766 53.9023 60.668 51.8906 60.668C50.4648 60.668 49.2734 61.3906 48.707 62.6016H48.668C48.2285 61.3711 47.2031 60.668 45.8164 60.668C44.4492 60.668 43.4141 61.3906 42.9355 62.4648H42.8965V60.8438H41.2949V71Z" fill="#281414"/>
<path d="M58.3066 59.0371C58.9023 59.0371 59.3711 58.5586 59.3711 57.9727C59.3711 57.377 58.9023 56.9082 58.3066 56.9082C57.7207 56.9082 57.2422 57.377 57.2422 57.9727C57.2422 58.5586 57.7207 59.0371 58.3066 59.0371ZM57.457 71H59.1562V60.8438H57.457V71Z" fill="#281414"/>
<path d="M61.4512 71H63.1504V65.0234C63.1504 63.3047 64.1953 62.1719 65.7969 62.1719C67.3594 62.1719 68.1309 63.0703 68.1309 64.7109V71H69.8301V64.4082C69.8301 62.1035 68.541 60.668 66.3145 60.668C64.7422 60.668 63.6582 61.3711 63.0918 62.4648H63.0527V60.8438H61.4512V71Z" fill="#281414"/>
<path d="M71.8223 63.6465C71.8223 65.1113 72.75 66 74.6641 66.459L76.2754 66.8496C77.4375 67.1328 77.8379 67.5527 77.8379 68.2852C77.8379 69.2031 76.9883 69.7891 75.6113 69.7891C74.2344 69.7891 73.4531 69.2324 73.248 68.0703H71.5488C71.7441 69.9746 73.2285 71.1758 75.6113 71.1758C77.877 71.1758 79.5469 69.9258 79.5469 68.1582C79.5469 66.7031 78.8047 65.9023 76.7539 65.4043L75.1426 65.0137C74.0098 64.7402 73.4922 64.2617 73.4922 63.5586C73.4922 62.6699 74.3125 62.0547 75.5527 62.0547C76.8027 62.0547 77.584 62.709 77.7109 63.7734H79.332C79.2637 61.9766 77.7793 60.668 75.5527 60.668C73.3555 60.668 71.8223 61.9082 71.8223 63.6465Z" fill="#281414"/>
<path d="M25.7363 82.2715V102H29.2637V95.4785H33.2559C37.248 95.4785 40.0508 92.8125 40.0508 88.875C40.0508 84.9375 37.3301 82.2715 33.4062 82.2715H25.7363ZM29.2637 85.1562H32.4766C35.0059 85.1562 36.4688 86.5098 36.4688 88.875C36.4688 91.2676 34.9922 92.6348 32.4629 92.6348H29.2637V85.1562Z" fill="#880303"/>
<path d="M42.293 102H45.6973V93.5645C45.6973 91.5273 46.8594 90.2832 48.7871 90.2832C49.3613 90.2832 49.8809 90.3652 50.168 90.4746V87.3984C49.9219 87.3438 49.5391 87.2617 49.1016 87.2617C47.3926 87.2617 46.1211 88.2734 45.6289 90.0371H45.5605V87.5078H42.293V102Z" fill="#880303"/>
<path d="M55.8555 102.232C57.7148 102.232 59.5332 101.262 60.3672 99.6895H60.4355V102H63.7168V92.0195C63.7168 89.1074 61.3789 87.207 57.7832 87.207C54.0918 87.207 51.7812 89.1484 51.6309 91.8555H54.7891C55.0078 90.6523 56.0332 89.873 57.6465 89.873C59.3281 89.873 60.3535 90.748 60.3535 92.2656V93.3047L56.5254 93.5234C52.998 93.7422 51.0156 95.2871 51.0156 97.8574C51.0156 100.469 53.0527 102.232 55.8555 102.232ZM56.8809 99.6621C55.4043 99.6621 54.4199 98.9102 54.4199 97.7207C54.4199 96.5723 55.3633 95.834 57.0039 95.7246L60.3535 95.5195V96.627C60.3535 98.377 58.8086 99.6621 56.8809 99.6621Z" fill="#880303"/>
<path d="M79.2344 92.6758C79.002 89.627 76.6367 87.207 72.8086 87.207C68.5977 87.207 65.8633 90.1191 65.8633 94.7539C65.8633 99.457 68.5977 102.287 72.8359 102.287C76.4727 102.287 78.9746 100.154 79.248 96.9141H76.0352C75.7207 98.5547 74.5996 99.5391 72.877 99.5391C70.7168 99.5391 69.3223 97.7891 69.3223 94.7539C69.3223 91.7734 70.7031 89.9688 72.8496 89.9688C74.668 89.9688 75.748 91.1309 76.0215 92.6758H79.2344Z" fill="#880303"/>
<path d="M82.2285 84.1172V87.5078H80.1504V90.1328H82.2285V98.1445C82.2285 100.961 83.459 102.068 86.5898 102.068C87.3145 102.068 87.9844 102.014 88.3535 101.932V99.334C88.1348 99.375 87.6973 99.4023 87.3828 99.4023C86.1797 99.4023 85.6328 98.8555 85.6328 97.666V90.1328H88.3672V87.5078H85.6328V84.1172H82.2285Z" fill="#880303"/>
<path d="M92.4688 85.3203C93.5078 85.3203 94.3281 84.4863 94.3281 83.4746C94.3281 82.4492 93.5078 81.6289 92.4688 81.6289C91.4297 81.6289 90.5957 82.4492 90.5957 83.4746C90.5957 84.4863 91.4297 85.3203 92.4688 85.3203ZM90.7734 102H94.1777V87.5078H90.7734V102Z" fill="#880303"/>
<path d="M109.805 92.6758C109.572 89.627 107.207 87.207 103.379 87.207C99.168 87.207 96.4336 90.1191 96.4336 94.7539C96.4336 99.457 99.168 102.287 103.406 102.287C107.043 102.287 109.545 100.154 109.818 96.9141H106.605C106.291 98.5547 105.17 99.5391 103.447 99.5391C101.287 99.5391 99.8926 97.7891 99.8926 94.7539C99.8926 91.7734 101.273 89.9688 103.42 89.9688C105.238 89.9688 106.318 91.1309 106.592 92.6758H109.805Z" fill="#880303"/>
<path d="M121.453 97.666C121.084 98.8691 119.881 99.6621 118.295 99.6621C116.066 99.6621 114.645 98.1035 114.645 95.7793V95.5742H124.775V94.4668C124.775 90.0645 122.205 87.207 118.09 87.207C113.906 87.207 111.254 90.2285 111.254 94.8086C111.254 99.4297 113.879 102.287 118.227 102.287C121.658 102.287 124.201 100.4 124.639 97.666H121.453ZM118.104 89.8457C120.059 89.8457 121.371 91.2812 121.439 93.332H114.672C114.809 91.3086 116.189 89.8457 118.104 89.8457Z" fill="#880303"/>
<path d="M138.967 107.469C143.191 107.469 145.967 105.227 145.967 101.768V87.5078H142.631V89.9961H142.576C141.742 88.3281 140.074 87.2617 138.01 87.2617C134.305 87.2617 131.98 90.1191 131.98 94.6992C131.98 99.2109 134.359 102.014 137.941 102.014C140.02 102.014 141.729 100.975 142.48 99.416H142.562V101.863C142.562 103.709 141.291 104.953 139.076 104.953C137.463 104.953 136.219 104.201 135.85 103.094H132.473C132.814 105.637 135.385 107.469 138.967 107.469ZM138.98 99.3066C136.834 99.3066 135.467 97.584 135.467 94.7129C135.467 91.8691 136.834 90.0645 138.98 90.0645C141.154 90.0645 142.562 91.8965 142.562 94.7129C142.562 97.543 141.154 99.3066 138.98 99.3066Z" fill="#880303"/>
<path d="M148.742 102H152.146V93.5645C152.146 91.5273 153.309 90.2832 155.236 90.2832C155.811 90.2832 156.33 90.3652 156.617 90.4746V87.3984C156.371 87.3438 155.988 87.2617 155.551 87.2617C153.842 87.2617 152.57 88.2734 152.078 90.0371H152.01V87.5078H148.742V102Z" fill="#880303"/>
<path d="M162.305 102.232C164.164 102.232 165.982 101.262 166.816 99.6895H166.885V102H170.166V92.0195C170.166 89.1074 167.828 87.207 164.232 87.207C160.541 87.207 158.23 89.1484 158.08 91.8555H161.238C161.457 90.6523 162.482 89.873 164.096 89.873C165.777 89.873 166.803 90.748 166.803 92.2656V93.3047L162.975 93.5234C159.447 93.7422 157.465 95.2871 157.465 97.8574C157.465 100.469 159.502 102.232 162.305 102.232ZM163.33 99.6621C161.854 99.6621 160.869 98.9102 160.869 97.7207C160.869 96.5723 161.812 95.834 163.453 95.7246L166.803 95.5195V96.627C166.803 98.377 165.258 99.6621 163.33 99.6621Z" fill="#880303"/>
<path d="M173.857 84.1172V87.5078H171.779V90.1328H173.857V98.1445C173.857 100.961 175.088 102.068 178.219 102.068C178.943 102.068 179.613 102.014 179.982 101.932V99.334C179.764 99.375 179.326 99.4023 179.012 99.4023C177.809 99.4023 177.262 98.8555 177.262 97.666V90.1328H179.996V87.5078H177.262V84.1172H173.857Z" fill="#880303"/>
<path d="M184.098 85.3203C185.137 85.3203 185.957 84.4863 185.957 83.4746C185.957 82.4492 185.137 81.6289 184.098 81.6289C183.059 81.6289 182.225 82.4492 182.225 83.4746C182.225 84.4863 183.059 85.3203 184.098 85.3203ZM182.402 102H185.807V87.5078H182.402V102Z" fill="#880303"/>
<path d="M189.607 84.1172V87.5078H187.529V90.1328H189.607V98.1445C189.607 100.961 190.838 102.068 193.969 102.068C194.693 102.068 195.363 102.014 195.732 101.932V99.334C195.514 99.375 195.076 99.4023 194.762 99.4023C193.559 99.4023 193.012 98.8555 193.012 97.666V90.1328H195.746V87.5078H193.012V84.1172H189.607Z" fill="#880303"/>
<path d="M210.922 87.5078H207.518V95.8887C207.518 97.9941 206.301 99.3887 204.332 99.3887C202.418 99.3887 201.406 98.2676 201.406 96.1895V87.5078H198.002V96.873C198.002 100.223 199.998 102.26 203.143 102.26C205.344 102.26 206.807 101.248 207.572 99.4844H207.641V102H210.922V87.5078Z" fill="#880303"/>
<path d="M219.125 102.232C221.244 102.232 222.912 101.152 223.705 99.5254H223.76V102H227.096V82.2715H223.691V89.9414H223.609C222.844 88.3418 221.203 87.2617 219.125 87.2617C215.475 87.2617 213.109 90.1602 213.109 94.7402C213.109 99.3477 215.475 102.232 219.125 102.232ZM220.15 90.0645C222.297 90.0645 223.705 91.9102 223.705 94.7539C223.705 97.625 222.297 99.4434 220.15 99.4434C217.949 99.4434 216.596 97.6387 216.596 94.7539C216.596 91.8828 217.963 90.0645 220.15 90.0645Z" fill="#880303"/>
<path d="M239.551 97.666C239.182 98.8691 237.979 99.6621 236.393 99.6621C234.164 99.6621 232.742 98.1035 232.742 95.7793V95.5742H242.873V94.4668C242.873 90.0645 240.303 87.207 236.188 87.207C232.004 87.207 229.352 90.2285 229.352 94.8086C229.352 99.4297 231.977 102.287 236.324 102.287C239.756 102.287 242.299 100.4 242.736 97.666H239.551ZM236.201 89.8457C238.156 89.8457 239.469 91.2812 239.537 93.332H232.77C232.906 91.3086 234.287 89.8457 236.201 89.8457Z" fill="#880303"/>
<path opacity="0.4" fill-rule="evenodd" clip-rule="evenodd" d="M526.289 168.581C528.555 169.347 532.845 169.122 535.835 175.159C538.826 181.197 538.766 191.23 549.149 184.268C559.533 177.306 565.371 171.321 569.192 165.073C573.013 158.825 573.624 141.019 566.631 129.439C559.637 117.859 558.429 109.073 554.381 111.056L550.333 113.038C550.333 113.038 542.427 127.54 534.324 132.759C526.22 137.979 525.722 136.972 525.488 133.961C525.254 130.95 527.761 133.473 534.61 126.992C541.46 120.511 547.773 119.294 548.075 111.018C548.377 102.743 542.871 95.4354 538.604 91.8986C534.337 88.3616 529.829 83.0674 530.063 86.0789C530.297 89.0901 532.585 86.0939 531.03 93.108C529.474 100.122 527.443 102.368 524.89 107.369C522.338 112.37 521.81 116.381 519.786 117.372C517.762 118.363 513.231 116.832 516.04 111.079C518.849 105.327 520.11 105.334 522.451 93.5589C524.792 81.7833 526.317 79.7856 523.304 77.5103C520.29 75.235 507.943 73.1553 507.943 73.1553C507.943 73.1553 512.045 104.283 506.011 100.987C499.977 97.6898 501.819 84.908 501.086 80.8906C500.353 76.8727 505.685 71.135 496.842 73.5912C487.998 76.047 477.418 73.7267 477.154 75.7317C476.89 77.737 475.885 76.9785 478.627 82.5132C481.368 88.0477 486.881 94.1006 486.881 94.1006C486.881 94.1006 490.144 96.8789 485.107 95.5951C480.069 94.3109 477.607 84.263 475.81 89.5197C474.013 94.7765 466.959 93.2297 471.204 100.529C475.448 107.829 484.73 116.412 487.237 118.935C489.744 121.458 494.767 125.251 494.767 125.251C494.767 125.251 498.278 128.532 495.001 128.262C491.723 127.992 469.376 110.802 467.632 107.281C465.887 103.759 468.983 92.2386 464.611 106.259C460.239 120.28 456.418 126.528 463.456 130.583C470.495 134.638 489.926 133.249 494.933 139.549C499.94 145.85 504.706 150.393 499.155 150.611C493.604 150.829 478.251 145.22 470.201 141.66C462.15 138.101 462.943 132.085 462.15 138.101C461.357 144.116 447.99 143.786 463.336 150.65C478.682 157.513 489.534 156.574 495.84 156.612C502.146 156.649 507.153 162.949 502.856 164.429C498.559 165.909 465.043 160.442 465.043 160.442C465.043 160.442 476.742 186.598 483.773 191.908C490.804 197.217 494.505 211.035 507.411 204.088C520.317 197.141 529.424 192.68 526.69 185.891C523.956 179.102 522 168.807 522 168.807L526.289 168.581Z" fill="#88AEA0"/>
<path fill-rule="evenodd" clip-rule="evenodd" d="M624.055 161.911C629.495 167.039 651.229 181.776 665.055 177.094C678.882 172.413 698.353 160.333 697.42 142.26C696.487 124.187 705.998 90.5667 702.024 85.8319C698.05 81.0975 683.548 119.671 650.234 114.935C616.919 110.199 675.635 108.114 688.295 92.1121C700.955 76.1102 691.325 49.4153 685.725 39.0028C680.125 28.5904 669.573 13.1814 669.641 9.00606C669.709 4.83042 667.333 0 667.333 0C667.333 0 665.406 5.24973 664.525 6.58618C663.643 7.92245 655.753 10.0011 645.645 12.534C635.536 15.0665 618.481 22.0274 616.065 27.1464C613.649 32.2651 611.461 38.4929 616.179 50.2419C620.898 61.9908 628.414 82.8764 625.412 86.2656C622.411 89.6546 624.099 99.0185 615.793 88.9294C607.487 78.84 588.828 48.677 594.542 37.1034C600.255 25.5298 579.05 46.0563 576.208 54.7298C573.365 63.4038 574.86 69.5705 578.442 75.7727C582.024 81.9748 606.288 114.689 608.568 117.921C610.848 121.153 611.206 121.773 608.5 122.096C605.794 122.419 576.703 92.081 576.282 87.7746C575.861 83.4682 572.319 67.317 572.319 67.317C572.319 67.317 557.703 82.7947 558.152 92.8751C558.601 102.955 554.179 133.222 556.879 140.76C559.58 148.299 587.631 174.689 600.672 172.943C613.714 171.196 624.055 161.911 624.055 161.911" fill="#368C5B"/>
<path fill-rule="evenodd" clip-rule="evenodd" d="M592.15 129C592.15 129 599 132.915 599 138.342C599 143.77 592.15 150.8 592.15 150.801C592.15 150.801 584.964 157.052 584.964 148.476C584.964 139.9 582 138.457 582 134.639C582 130.821 592.15 129 592.15 129Z" fill="#FDE0D6"/>
<path fill-rule="evenodd" clip-rule="evenodd" d="M663.933 6.07957C663.933 6.07957 650.287 55.0026 633.739 117.584C631.923 124.453 625.471 138.241 623.724 145.209C622.09 151.722 621.913 165.748 620.461 172.119C610.326 216.587 601.419 255.578 599.007 263.598C592.511 285.196 565.248 296.335 547.683 323.406C530.118 350.477 523.43 374.227 523.43 374.227L520 384C520 384 547.918 379.8 551.639 374.914C555.36 370.027 562.572 320.085 573.834 312.463C585.096 304.841 609.526 265.694 612.757 250.6C613.698 246.202 614.756 226.264 618.934 214.243C620.071 210.972 623.048 183.252 629.785 153.55C644.074 90.5523 667 2 667 2L663.933 6.07957Z" fill="#125A31"/>
<path fill-rule="evenodd" clip-rule="evenodd" d="M662.956 60C662.956 60 669 63.4254 669 68.1746C669 72.9239 662.956 79.0754 662.956 79.0756C662.956 79.0757 656.615 84.5454 656.615 77.0416C656.615 69.5378 654 68.2751 654 64.9341C654 61.593 662.956 60 662.956 60Z" fill="#FDE0D6"/>
<path fill-rule="evenodd" clip-rule="evenodd" d="M650.584 145.564C650.584 145.564 653.212 143.479 654.599 144.174C655.987 144.869 657 147.325 657 148.459C657 149.593 654.214 154 652.078 154C649.943 154 647.862 152.928 647.207 152.333C646.552 151.738 643.298 151.019 644.137 150.01C644.977 149 645.44 146.906 647.207 146.906C648.974 146.906 650.584 145.564 650.584 145.564Z" fill="#FDE0D6"/>
</g>
</svg>
