<svg width="740" height="160" viewBox="0 0 740 160" fill="none" xmlns="http://www.w3.org/2000/svg">
<rect width="740" height="160" rx="32" fill="#FCEFE2"/>
<mask id="mask0" mask-type="alpha" maskUnits="userSpaceOnUse" x="0" y="0" width="740" height="160">
<rect width="740" height="160" rx="32" fill="white"/>
</mask>
<g mask="url(#mask0)">
<path d="M28.0137 64.4668H29.7812C31.7637 64.4668 33.0039 65.4434 32.9941 67.1816C32.9844 68.6562 31.7441 69.7109 29.8887 69.7109C28.0137 69.7109 26.6953 68.7637 26.5879 67.2695H24.8984C25.0254 69.6035 26.9688 71.2344 29.8887 71.2344C32.6523 71.2344 34.7812 69.5449 34.7812 67.123C34.7812 65.1211 33.3848 63.8418 31.334 63.666V63.627C33.1016 63.2559 34.3223 62.0547 34.3223 60.3066C34.3223 58.2949 32.6914 56.6738 29.8691 56.6738C27.2324 56.6738 25.377 58.207 25.1816 60.5996H26.8711C26.9785 59.0762 28.209 58.1973 29.8691 58.1973C31.6758 58.1973 32.5547 59.1445 32.5547 60.541C32.5547 61.9473 31.3828 62.9824 29.7031 62.9824H28.0137V64.4668Z" fill="#4D2D0D"/>
<path d="M41.041 71H42.7402V64.6328C42.7402 63.2266 43.7168 62.1719 45.0645 62.1719C46.3242 62.1719 47.1445 62.9727 47.1445 64.1934V71H48.8438V64.5449C48.8438 63.168 49.791 62.1719 51.1387 62.1719C52.4766 62.1719 53.248 62.9922 53.248 64.3789V71H54.9473V63.9883C54.9473 61.9766 53.6484 60.668 51.6367 60.668C50.2109 60.668 49.0195 61.3906 48.4531 62.6016H48.4141C47.9746 61.3711 46.9492 60.668 45.5625 60.668C44.1953 60.668 43.1602 61.3906 42.6816 62.4648H42.6426V60.8438H41.041V71Z" fill="#4D2D0D"/>
<path d="M58.0527 59.0371C58.6484 59.0371 59.1172 58.5586 59.1172 57.9727C59.1172 57.377 58.6484 56.9082 58.0527 56.9082C57.4668 56.9082 56.9883 57.377 56.9883 57.9727C56.9883 58.5586 57.4668 59.0371 58.0527 59.0371ZM57.2031 71H58.9023V60.8438H57.2031V71Z" fill="#4D2D0D"/>
<path d="M61.1973 71H62.8965V65.0234C62.8965 63.3047 63.9414 62.1719 65.543 62.1719C67.1055 62.1719 67.877 63.0703 67.877 64.7109V71H69.5762V64.4082C69.5762 62.1035 68.2871 60.668 66.0605 60.668C64.4883 60.668 63.4043 61.3711 62.8379 62.4648H62.7988V60.8438H61.1973V71Z" fill="#4D2D0D"/>
<path d="M71.5684 63.6465C71.5684 65.1113 72.4961 66 74.4102 66.459L76.0215 66.8496C77.1836 67.1328 77.584 67.5527 77.584 68.2852C77.584 69.2031 76.7344 69.7891 75.3574 69.7891C73.9805 69.7891 73.1992 69.2324 72.9941 68.0703H71.2949C71.4902 69.9746 72.9746 71.1758 75.3574 71.1758C77.623 71.1758 79.293 69.9258 79.293 68.1582C79.293 66.7031 78.5508 65.9023 76.5 65.4043L74.8887 65.0137C73.7559 64.7402 73.2383 64.2617 73.2383 63.5586C73.2383 62.6699 74.0586 62.0547 75.2988 62.0547C76.5488 62.0547 77.3301 62.709 77.457 63.7734H79.0781C79.0098 61.9766 77.5254 60.668 75.2988 60.668C73.1016 60.668 71.5684 61.9082 71.5684 63.6465Z" fill="#4D2D0D"/>
<path d="M29.2637 102V82.2715H25.7363V102H29.2637Z" fill="#6C3600"/>
<path d="M37.8086 102.232C39.9277 102.232 41.5957 101.152 42.3887 99.5254H42.4434V102H45.7793V82.2715H42.375V89.9414H42.293C41.5273 88.3418 39.8867 87.2617 37.8086 87.2617C34.1582 87.2617 31.793 90.1602 31.793 94.7402C31.793 99.3477 34.1582 102.232 37.8086 102.232ZM38.834 90.0645C40.9805 90.0645 42.3887 91.9102 42.3887 94.7539C42.3887 97.625 40.9805 99.4434 38.834 99.4434C36.6328 99.4434 35.2793 97.6387 35.2793 94.7539C35.2793 91.8828 36.6465 90.0645 38.834 90.0645Z" fill="#6C3600"/>
<path d="M58.2344 97.666C57.8652 98.8691 56.6621 99.6621 55.0762 99.6621C52.8477 99.6621 51.4258 98.1035 51.4258 95.7793V95.5742H61.5566V94.4668C61.5566 90.0645 58.9863 87.207 54.8711 87.207C50.6875 87.207 48.0352 90.2285 48.0352 94.8086C48.0352 99.4297 50.6602 102.287 55.0078 102.287C58.4395 102.287 60.9824 100.4 61.4199 97.666H58.2344ZM54.8848 89.8457C56.8398 89.8457 58.1523 91.2812 58.2207 93.332H51.4531C51.5898 91.3086 52.9707 89.8457 54.8848 89.8457Z" fill="#6C3600"/>
<path d="M63.7578 102H67.1621V93.6055C67.1621 91.5273 68.4062 90.1191 70.3613 90.1191C72.3027 90.1191 73.2598 91.2676 73.2598 93.3184V102H76.6641V92.6348C76.6641 89.2852 74.8457 87.2344 71.6465 87.2344C69.418 87.2344 67.873 88.2734 67.0938 89.9961H67.0254V87.5078H63.7578V102Z" fill="#6C3600"/>
<path d="M80.3418 84.1172V87.5078H78.2637V90.1328H80.3418V98.1445C80.3418 100.961 81.5723 102.068 84.7031 102.068C85.4277 102.068 86.0977 102.014 86.4668 101.932V99.334C86.248 99.375 85.8105 99.4023 85.4961 99.4023C84.293 99.4023 83.7461 98.8555 83.7461 97.666V90.1328H86.4805V87.5078H83.7461V84.1172H80.3418Z" fill="#6C3600"/>
<path d="M90.582 85.3203C91.6211 85.3203 92.4414 84.4863 92.4414 83.4746C92.4414 82.4492 91.6211 81.6289 90.582 81.6289C89.543 81.6289 88.709 82.4492 88.709 83.4746C88.709 84.4863 89.543 85.3203 90.582 85.3203ZM88.8867 102H92.291V87.5078H88.8867V102Z" fill="#6C3600"/>
<path d="M96.0918 102H99.4961V90.1328H102.34V87.5488H99.4414V86.3594C99.4414 85.1836 100.029 84.5684 101.328 84.5684C101.725 84.5684 102.121 84.6094 102.408 84.6504V82.2715C101.984 82.1895 101.246 82.1211 100.576 82.1211C97.4316 82.1211 96.0918 83.4473 96.0918 86.2637V87.5488H94.1094V90.1328H96.0918V102Z" fill="#6C3600"/>
<path d="M106.209 107.387C109.518 107.387 111.117 106.17 112.348 102.574L117.598 87.5078H114.016L110.598 99.1016H110.529L107.125 87.5078H103.406L108.561 102.014C108.574 102.055 108.355 102.779 108.355 102.82C107.986 104.16 107.262 104.693 105.854 104.693C105.648 104.693 105.047 104.68 104.869 104.639V107.332C105.047 107.373 106.004 107.387 106.209 107.387Z" fill="#6C3600"/>
<path d="M126.443 107.387C129.752 107.387 131.352 106.17 132.582 102.574L137.832 87.5078H134.25L130.832 99.1016H130.764L127.359 87.5078H123.641L128.795 102.014C128.809 102.055 128.59 102.779 128.59 102.82C128.221 104.16 127.496 104.693 126.088 104.693C125.883 104.693 125.281 104.68 125.104 104.639V107.332C125.281 107.373 126.238 107.387 126.443 107.387Z" fill="#6C3600"/>
<path d="M145.447 102.287C149.699 102.287 152.461 99.457 152.461 94.7539C152.461 90.0645 149.672 87.207 145.447 87.207C141.223 87.207 138.434 90.0781 138.434 94.7539C138.434 99.457 141.195 102.287 145.447 102.287ZM145.447 99.5938C143.287 99.5938 141.893 97.8438 141.893 94.7539C141.893 91.6777 143.301 89.9141 145.447 89.9141C147.607 89.9141 149.002 91.6777 149.002 94.7539C149.002 97.8438 147.607 99.5938 145.447 99.5938Z" fill="#6C3600"/>
<path d="M167.5 87.5078H164.096V95.8887C164.096 97.9941 162.879 99.3887 160.91 99.3887C158.996 99.3887 157.984 98.2676 157.984 96.1895V87.5078H154.58V96.873C154.58 100.223 156.576 102.26 159.721 102.26C161.922 102.26 163.385 101.248 164.15 99.4844H164.219V102H167.5V87.5078Z" fill="#6C3600"/>
<path d="M170.289 102H173.693V93.5645C173.693 91.5273 174.855 90.2832 176.783 90.2832C177.357 90.2832 177.877 90.3652 178.164 90.4746V87.3984C177.918 87.3438 177.535 87.2617 177.098 87.2617C175.389 87.2617 174.117 88.2734 173.625 90.0371H173.557V87.5078H170.289V102Z" fill="#6C3600"/>
<path d="M198.275 87.5078H194.721L191.357 98.8418H191.289L187.926 87.5078H184.289L189.43 102H193.176L198.275 87.5078Z" fill="#6C3600"/>
<path d="M203.785 102.232C205.645 102.232 207.463 101.262 208.297 99.6895H208.365V102H211.646V92.0195C211.646 89.1074 209.309 87.207 205.713 87.207C202.021 87.207 199.711 89.1484 199.561 91.8555H202.719C202.938 90.6523 203.963 89.873 205.576 89.873C207.258 89.873 208.283 90.748 208.283 92.2656V93.3047L204.455 93.5234C200.928 93.7422 198.945 95.2871 198.945 97.8574C198.945 100.469 200.982 102.232 203.785 102.232ZM204.811 99.6621C203.334 99.6621 202.35 98.9102 202.35 97.7207C202.35 96.5723 203.293 95.834 204.934 95.7246L208.283 95.5195V96.627C208.283 98.377 206.738 99.6621 204.811 99.6621Z" fill="#6C3600"/>
<path d="M214.49 102H217.895V82.2715H214.49V102Z" fill="#6C3600"/>
<path d="M233.645 87.5078H230.24V95.8887C230.24 97.9941 229.023 99.3887 227.055 99.3887C225.141 99.3887 224.129 98.2676 224.129 96.1895V87.5078H220.725V96.873C220.725 100.223 222.721 102.26 225.865 102.26C228.066 102.26 229.529 101.248 230.295 99.4844H230.363V102H233.645V87.5078Z" fill="#6C3600"/>
<path d="M246.031 97.666C245.662 98.8691 244.459 99.6621 242.873 99.6621C240.645 99.6621 239.223 98.1035 239.223 95.7793V95.5742H249.354V94.4668C249.354 90.0645 246.783 87.207 242.668 87.207C238.484 87.207 235.832 90.2285 235.832 94.8086C235.832 99.4297 238.457 102.287 242.805 102.287C246.236 102.287 248.779 100.4 249.217 97.666H246.031ZM242.682 89.8457C244.637 89.8457 245.949 91.2812 246.018 93.332H239.25C239.387 91.3086 240.768 89.8457 242.682 89.8457Z" fill="#6C3600"/>
<path d="M251.295 91.6641C251.295 93.8105 252.689 95.1777 255.465 95.793L257.871 96.3262C259.389 96.668 259.908 97.1602 259.908 98.0352C259.908 99.1152 258.883 99.7988 257.229 99.7988C255.506 99.7988 254.535 99.0879 254.275 97.6797H250.926C251.199 100.482 253.441 102.287 257.229 102.287C260.783 102.287 263.299 100.441 263.299 97.707C263.299 95.6016 262.137 94.4395 259.129 93.7695L256.723 93.2363C255.205 92.8945 254.604 92.3203 254.604 91.4863C254.604 90.4199 255.602 89.709 257.105 89.709C258.678 89.709 259.648 90.543 259.785 91.8555H262.957C262.875 89.1074 260.633 87.207 257.105 87.207C253.605 87.207 251.295 89.0117 251.295 91.6641Z" fill="#6C3600"/>
<path fill-rule="evenodd" clip-rule="evenodd" d="M462.443 130.234C462.443 130.234 499.725 124.565 515.753 112.36C531.781 100.155 528.966 98.0696 548.748 88.6448C568.53 79.2201 607.663 74.2143 611.265 72.6327C614.866 71.0514 628.358 64.7574 644.488 55.4601C660.617 46.1629 677.077 46.3158 682.53 45.3976C687.983 44.4794 716.084 37.6753 735.435 42.0943C754.786 46.5136 747.406 44.5877 747.406 44.5877L751.213 127.429L754.613 172.436L457.93 158.05L462.443 130.234Z" fill="#CFDBD1"/>
<path fill-rule="evenodd" clip-rule="evenodd" d="M249.22 169.12C274.474 165.583 290.328 140.236 360.522 125.785C443.663 118.277 450.509 111.51 470.725 109.034C490.941 106.558 488.622 112.834 526.705 113.274C564.787 113.714 593.412 97.6703 617.368 93.2943C641.324 88.918 646.579 94.044 687.412 100.582C728.245 107.121 733.283 106.06 733.283 106.06L736.183 225.424L438.972 253.501L308.776 231.5C308.776 231.5 207.175 170.826 207.142 168.415C207.11 166.003 249.22 169.12 249.22 169.12Z" fill="#FCE5E5"/>
<path fill-rule="evenodd" clip-rule="evenodd" d="M438.942 168.319C438.942 168.319 516.907 144.764 523.49 138.284C530.072 131.805 553.279 127.869 553.279 127.869C553.279 127.869 559.035 125.585 570.766 127.258C582.497 128.932 587.463 131.884 611.46 122.713C635.457 113.542 658.373 101.284 672.764 95.5735C687.155 89.8628 701.981 96.6362 721.302 92.8365C740.624 89.0368 745.336 84.7061 745.336 84.7061C745.336 84.7061 752.245 87.5898 750.557 94.94C748.868 102.29 750.68 209.908 750.68 209.908L434.031 222.654L427.284 168.726L438.942 168.319Z" fill="#B95028"/>
<path opacity="0.5" fill-rule="evenodd" clip-rule="evenodd" d="M11.9851 9.74967C13.3602 19.5945 26.502 32.0022 34.7091 37.2036C44.6392 43.4963 58.7445 48.1426 67.7567 46.7529C83.238 44.3656 89.0155 42.7739 100.185 34.8163C111.354 26.8588 163.158 -41.397 83.238 -63.4608C14.5674 -82.4196 7.76659 -20.4587 11.9851 9.74967" fill="#FCCC99"/>
</g>
</svg>
