<svg width="740" height="160" viewBox="0 0 740 160" fill="none" xmlns="http://www.w3.org/2000/svg">
<rect width="740" height="160" rx="32" fill="#F1EADC"/>
<mask id="mask0" mask-type="alpha" maskUnits="userSpaceOnUse" x="0" y="0" width="740" height="160">
<rect width="740" height="160" rx="32" fill="white"/>
</mask>
<g mask="url(#mask0)">
<path d="M31.8418 71H33.541V68.0703H35.5332V66.5273H33.541V56.9082H30.9434C27.6133 61.6836 25.9629 64.252 24.7617 66.4785V68.0703H31.8418V71ZM26.5 66.4883C27.6133 64.5352 29.1465 62.1816 31.8125 58.373H31.8418V66.5273H26.5V66.4883Z" fill="#484322"/>
<path d="M41.2949 71H42.9941V64.6328C42.9941 63.2266 43.9707 62.1719 45.3184 62.1719C46.5781 62.1719 47.3984 62.9727 47.3984 64.1934V71H49.0977V64.5449C49.0977 63.168 50.0449 62.1719 51.3926 62.1719C52.7305 62.1719 53.502 62.9922 53.502 64.3789V71H55.2012V63.9883C55.2012 61.9766 53.9023 60.668 51.8906 60.668C50.4648 60.668 49.2734 61.3906 48.707 62.6016H48.668C48.2285 61.3711 47.2031 60.668 45.8164 60.668C44.4492 60.668 43.4141 61.3906 42.9355 62.4648H42.8965V60.8438H41.2949V71Z" fill="#484322"/>
<path d="M58.3066 59.0371C58.9023 59.0371 59.3711 58.5586 59.3711 57.9727C59.3711 57.377 58.9023 56.9082 58.3066 56.9082C57.7207 56.9082 57.2422 57.377 57.2422 57.9727C57.2422 58.5586 57.7207 59.0371 58.3066 59.0371ZM57.457 71H59.1562V60.8438H57.457V71Z" fill="#484322"/>
<path d="M61.4512 71H63.1504V65.0234C63.1504 63.3047 64.1953 62.1719 65.7969 62.1719C67.3594 62.1719 68.1309 63.0703 68.1309 64.7109V71H69.8301V64.4082C69.8301 62.1035 68.541 60.668 66.3145 60.668C64.7422 60.668 63.6582 61.3711 63.0918 62.4648H63.0527V60.8438H61.4512V71Z" fill="#484322"/>
<path d="M71.8223 63.6465C71.8223 65.1113 72.75 66 74.6641 66.459L76.2754 66.8496C77.4375 67.1328 77.8379 67.5527 77.8379 68.2852C77.8379 69.2031 76.9883 69.7891 75.6113 69.7891C74.2344 69.7891 73.4531 69.2324 73.248 68.0703H71.5488C71.7441 69.9746 73.2285 71.1758 75.6113 71.1758C77.877 71.1758 79.5469 69.9258 79.5469 68.1582C79.5469 66.7031 78.8047 65.9023 76.7539 65.4043L75.1426 65.0137C74.0098 64.7402 73.4922 64.2617 73.4922 63.5586C73.4922 62.6699 74.3125 62.0547 75.5527 62.0547C76.8027 62.0547 77.584 62.709 77.7109 63.7734H79.332C79.2637 61.9766 77.7793 60.668 75.5527 60.668C73.3555 60.668 71.8223 61.9082 71.8223 63.6465Z" fill="#484322"/>
<path d="M46.0938 102V82.2715H42.0195L35.9766 97.3242H35.8672L29.8242 82.2715H25.7363V102H28.9219V88H29.0176L34.7188 102H37.125L42.8262 88H42.9219V102H46.0938Z" fill="#594C00"/>
<path d="M53.1484 102.232C55.0078 102.232 56.8262 101.262 57.6602 99.6895H57.7285V102H61.0098V92.0195C61.0098 89.1074 58.6719 87.207 55.0762 87.207C51.3848 87.207 49.0742 89.1484 48.9238 91.8555H52.082C52.3008 90.6523 53.3262 89.873 54.9395 89.873C56.6211 89.873 57.6465 90.748 57.6465 92.2656V93.3047L53.8184 93.5234C50.291 93.7422 48.3086 95.2871 48.3086 97.8574C48.3086 100.469 50.3457 102.232 53.1484 102.232ZM54.1738 99.6621C52.6973 99.6621 51.7129 98.9102 51.7129 97.7207C51.7129 96.5723 52.6562 95.834 54.2969 95.7246L57.6465 95.5195V96.627C57.6465 98.377 56.1016 99.6621 54.1738 99.6621Z" fill="#594C00"/>
<path d="M67.2988 93.5508H67.2578V82.2715H63.8535V102H67.2578V96.9688L68.4062 95.8066L72.9863 102H76.9238L70.8809 93.7422L76.6777 87.5078H72.7539L67.2988 93.5508Z" fill="#594C00"/>
<path d="M87.1914 97.666C86.8223 98.8691 85.6191 99.6621 84.0332 99.6621C81.8047 99.6621 80.3828 98.1035 80.3828 95.7793V95.5742H90.5137V94.4668C90.5137 90.0645 87.9434 87.207 83.8281 87.207C79.6445 87.207 76.9922 90.2285 76.9922 94.8086C76.9922 99.4297 79.6172 102.287 83.9648 102.287C87.3965 102.287 89.9395 100.4 90.377 97.666H87.1914ZM83.8418 89.8457C85.7969 89.8457 87.1094 91.2812 87.1777 93.332H80.4102C80.5469 91.3086 81.9277 89.8457 83.8418 89.8457Z" fill="#594C00"/>
<path d="M102.586 102.232C104.445 102.232 106.264 101.262 107.098 99.6895H107.166V102H110.447V92.0195C110.447 89.1074 108.109 87.207 104.514 87.207C100.822 87.207 98.5117 89.1484 98.3613 91.8555H101.52C101.738 90.6523 102.764 89.873 104.377 89.873C106.059 89.873 107.084 90.748 107.084 92.2656V93.3047L103.256 93.5234C99.7285 93.7422 97.7461 95.2871 97.7461 97.8574C97.7461 100.469 99.7832 102.232 102.586 102.232ZM103.611 99.6621C102.135 99.6621 101.15 98.9102 101.15 97.7207C101.15 96.5723 102.094 95.834 103.734 95.7246L107.084 95.5195V96.627C107.084 98.377 105.539 99.6621 103.611 99.6621Z" fill="#594C00"/>
<path d="M126.758 87.2617C124.652 87.2617 123.012 88.3281 122.191 90.0098H122.123V87.5078H118.801V106.771H122.205V99.5938H122.273C123.066 101.221 124.707 102.232 126.812 102.232C130.449 102.232 132.773 99.375 132.773 94.7539C132.773 90.1191 130.436 87.2617 126.758 87.2617ZM125.719 99.4434C123.6 99.4434 122.191 97.5977 122.178 94.7539C122.191 91.9375 123.6 90.0645 125.719 90.0645C127.92 90.0645 129.287 91.8965 129.287 94.7539C129.287 97.625 127.92 99.4434 125.719 99.4434Z" fill="#594C00"/>
<path d="M135.057 102H138.461V82.2715H135.057V102Z" fill="#594C00"/>
<path d="M145.625 102.232C147.484 102.232 149.303 101.262 150.137 99.6895H150.205V102H153.486V92.0195C153.486 89.1074 151.148 87.207 147.553 87.207C143.861 87.207 141.551 89.1484 141.4 91.8555H144.559C144.777 90.6523 145.803 89.873 147.416 89.873C149.098 89.873 150.123 90.748 150.123 92.2656V93.3047L146.295 93.5234C142.768 93.7422 140.785 95.2871 140.785 97.8574C140.785 100.469 142.822 102.232 145.625 102.232ZM146.65 99.6621C145.174 99.6621 144.189 98.9102 144.189 97.7207C144.189 96.5723 145.133 95.834 146.773 95.7246L150.123 95.5195V96.627C150.123 98.377 148.578 99.6621 146.65 99.6621Z" fill="#594C00"/>
<path d="M156.234 102H159.639V93.6055C159.639 91.5273 160.883 90.1191 162.838 90.1191C164.779 90.1191 165.736 91.2676 165.736 93.3184V102H169.141V92.6348C169.141 89.2852 167.322 87.2344 164.123 87.2344C161.895 87.2344 160.35 88.2734 159.57 89.9961H159.502V87.5078H156.234V102Z" fill="#594C00"/>
<path fill-rule="evenodd" clip-rule="evenodd" d="M545.909 174.791C547.177 181.807 559.299 190.65 566.87 194.357C576.029 198.842 589.04 202.153 597.353 201.163C611.633 199.461 616.962 198.327 627.265 192.656C637.568 186.984 685.353 138.338 611.633 122.613C548.29 109.101 542.017 153.261 545.909 174.791" fill="#B95028"/>
<path fill-rule="evenodd" clip-rule="evenodd" d="M606.814 53.2442C606.814 53.2442 642.508 83.9383 642.863 85.7949C643.219 87.6513 651.786 104.775 646.307 106.305C640.828 107.835 576.531 118.702 572.108 115.7C567.686 112.698 548.753 94.1906 548.042 90.4776C547.332 86.7647 542.13 77.1758 547.185 70.9155C552.24 64.655 599.736 46.42 606.814 53.2442" fill="#C6855B"/>
<path fill-rule="evenodd" clip-rule="evenodd" d="M630.084 31.7495C630.084 37.5715 624.535 41.2404 615.922 44.4013C610.311 46.4608 603.365 49.1597 595.921 49.1597C577.054 49.1597 561.759 41.3649 561.759 31.7495C561.759 26.2507 567.273 23.146 575.084 19.9552C580.932 17.5665 587.844 14.3391 595.921 14.3391C614.789 14.3391 630.084 22.1341 630.084 31.7495" fill="#E89779"/>
<path fill-rule="evenodd" clip-rule="evenodd" d="M709.387 32C709.387 32 660.139 100.678 651.272 119.337C642.405 137.997 621.387 277 621.387 277C621.387 277 657.34 129.295 661.974 119.337C666.609 109.38 709.387 32 709.387 32Z" fill="#6CAA7F"/>
<path fill-rule="evenodd" clip-rule="evenodd" d="M696.42 65.8864C696.42 65.8864 654.654 139.195 647.791 158.641C640.929 178.088 634.559 318.256 634.559 318.256C634.559 318.256 654.861 167.892 658.426 157.525C661.992 147.157 696.42 65.8864 696.42 65.8864Z" fill="#6CAA7F"/>
</g>
</svg>
