<svg width="740" height="160" viewBox="0 0 740 160" fill="none" xmlns="http://www.w3.org/2000/svg">
<rect width="740" height="160" rx="32" fill="#F5F0E6"/>
<mask id="mask0" mask-type="alpha" maskUnits="userSpaceOnUse" x="0" y="0" width="740" height="160">
<rect width="740" height="160" rx="32" fill="white"/>
</mask>
<g mask="url(#mask0)">
<path d="M25.0547 60.9805H26.7539C26.7539 59.3984 28.0625 58.207 29.8008 58.207C31.4121 58.207 32.4473 59.3105 32.4473 60.6973C32.4473 61.8691 32.0078 62.6309 30.1035 64.6133L25.1426 69.7891V71H34.4395V69.4375H27.5547V69.3984L30.9043 65.9609C33.4922 63.3047 34.2051 62.1426 34.2051 60.5898C34.2051 58.4512 32.4082 56.6738 29.8008 56.6738C27.0859 56.6738 25.0547 58.5098 25.0547 60.9805Z" fill="#3A2F1F"/>
<path d="M40.5332 71H42.2324V64.6328C42.2324 63.2266 43.209 62.1719 44.5566 62.1719C45.8164 62.1719 46.6367 62.9727 46.6367 64.1934V71H48.3359V64.5449C48.3359 63.168 49.2832 62.1719 50.6309 62.1719C51.9688 62.1719 52.7402 62.9922 52.7402 64.3789V71H54.4395V63.9883C54.4395 61.9766 53.1406 60.668 51.1289 60.668C49.7031 60.668 48.5117 61.3906 47.9453 62.6016H47.9062C47.4668 61.3711 46.4414 60.668 45.0547 60.668C43.6875 60.668 42.6523 61.3906 42.1738 62.4648H42.1348V60.8438H40.5332V71Z" fill="#3A2F1F"/>
<path d="M57.5449 59.0371C58.1406 59.0371 58.6094 58.5586 58.6094 57.9727C58.6094 57.377 58.1406 56.9082 57.5449 56.9082C56.959 56.9082 56.4805 57.377 56.4805 57.9727C56.4805 58.5586 56.959 59.0371 57.5449 59.0371ZM56.6953 71H58.3945V60.8438H56.6953V71Z" fill="#3A2F1F"/>
<path d="M60.6895 71H62.3887V65.0234C62.3887 63.3047 63.4336 62.1719 65.0352 62.1719C66.5977 62.1719 67.3691 63.0703 67.3691 64.7109V71H69.0684V64.4082C69.0684 62.1035 67.7793 60.668 65.5527 60.668C63.9805 60.668 62.8965 61.3711 62.3301 62.4648H62.291V60.8438H60.6895V71Z" fill="#3A2F1F"/>
<path d="M71.0605 63.6465C71.0605 65.1113 71.9883 66 73.9023 66.459L75.5137 66.8496C76.6758 67.1328 77.0762 67.5527 77.0762 68.2852C77.0762 69.2031 76.2266 69.7891 74.8496 69.7891C73.4727 69.7891 72.6914 69.2324 72.4863 68.0703H70.7871C70.9824 69.9746 72.4668 71.1758 74.8496 71.1758C77.1152 71.1758 78.7852 69.9258 78.7852 68.1582C78.7852 66.7031 78.043 65.9023 75.9922 65.4043L74.3809 65.0137C73.248 64.7402 72.7305 64.2617 72.7305 63.5586C72.7305 62.6699 73.5508 62.0547 74.791 62.0547C76.041 62.0547 76.8223 62.709 76.9492 63.7734H78.5703C78.502 61.9766 77.0176 60.668 74.791 60.668C72.5938 60.668 71.0605 61.9082 71.0605 63.6465Z" fill="#3A2F1F"/>
<path d="M24.916 96.4902C25.0801 100.1 28.1016 102.328 32.668 102.328C37.4121 102.328 40.3789 99.9492 40.3789 96.1758C40.3789 93.25 38.6426 91.582 34.4863 90.7207L32.3535 90.2832C29.8926 89.7637 28.9082 88.9023 28.9082 87.5625C28.9082 85.9082 30.4668 84.8691 32.6543 84.8691C34.9102 84.8691 36.4688 85.9902 36.6328 87.8496H40.0098C39.9277 84.3223 37.043 81.9434 32.6816 81.9434C28.4023 81.9434 25.3535 84.2949 25.3535 87.7676C25.3535 90.6523 27.1992 92.5117 31.1504 93.3184L33.2695 93.7559C35.8398 94.2891 36.8242 95.1641 36.8242 96.5859C36.8242 98.2266 35.1699 99.4023 32.791 99.4023C30.3301 99.4023 28.5527 98.3086 28.293 96.4902H24.916Z" fill="#614111"/>
<path d="M42.7715 102H46.1758V93.6738C46.1758 91.541 47.4199 90.1191 49.4707 90.1191C51.4395 90.1191 52.4512 91.3359 52.4512 93.3594V102H55.8555V92.6621C55.8555 89.3398 53.9824 87.2344 50.7832 87.2344C48.582 87.2344 46.9824 88.2324 46.2031 89.9961H46.1348V82.2715H42.7715V102Z" fill="#614111"/>
<path d="M65.002 102.287C69.2539 102.287 72.0156 99.457 72.0156 94.7539C72.0156 90.0645 69.2266 87.207 65.002 87.207C60.7773 87.207 57.9883 90.0781 57.9883 94.7539C57.9883 99.457 60.75 102.287 65.002 102.287ZM65.002 99.5938C62.8418 99.5938 61.4473 97.8438 61.4473 94.7539C61.4473 91.6777 62.8555 89.9141 65.002 89.9141C67.1621 89.9141 68.5566 91.6777 68.5566 94.7539C68.5566 97.8438 67.1621 99.5938 65.002 99.5938Z" fill="#614111"/>
<path d="M93.7812 87.5078H90.418L87.9707 98.6367H87.8887L85.0586 87.5078H81.791L78.9609 98.6367H78.8926L76.4453 87.5078H73.0273L76.9512 102H80.5059L83.3496 91.4043H83.418L86.2754 102H89.8574L93.7812 87.5078Z" fill="#614111"/>
<path d="M100.822 91.6641C100.822 93.8105 102.217 95.1777 104.992 95.793L107.398 96.3262C108.916 96.668 109.436 97.1602 109.436 98.0352C109.436 99.1152 108.41 99.7988 106.756 99.7988C105.033 99.7988 104.062 99.0879 103.803 97.6797H100.453C100.727 100.482 102.969 102.287 106.756 102.287C110.311 102.287 112.826 100.441 112.826 97.707C112.826 95.6016 111.664 94.4395 108.656 93.7695L106.25 93.2363C104.732 92.8945 104.131 92.3203 104.131 91.4863C104.131 90.4199 105.129 89.709 106.633 89.709C108.205 89.709 109.176 90.543 109.312 91.8555H112.484C112.402 89.1074 110.16 87.207 106.633 87.207C103.133 87.207 100.822 89.0117 100.822 91.6641Z" fill="#614111"/>
<path d="M124.598 97.666C124.229 98.8691 123.025 99.6621 121.439 99.6621C119.211 99.6621 117.789 98.1035 117.789 95.7793V95.5742H127.92V94.4668C127.92 90.0645 125.35 87.207 121.234 87.207C117.051 87.207 114.398 90.2285 114.398 94.8086C114.398 99.4297 117.023 102.287 121.371 102.287C124.803 102.287 127.346 100.4 127.783 97.666H124.598ZM121.248 89.8457C123.203 89.8457 124.516 91.2812 124.584 93.332H117.816C117.953 91.3086 119.334 89.8457 121.248 89.8457Z" fill="#614111"/>
<path d="M130.217 102H133.621V82.2715H130.217V102Z" fill="#614111"/>
<path d="M137.463 102H140.867V90.1328H143.711V87.5488H140.812V86.3594C140.812 85.1836 141.4 84.5684 142.699 84.5684C143.096 84.5684 143.492 84.6094 143.779 84.6504V82.2715C143.355 82.1895 142.617 82.1211 141.947 82.1211C138.803 82.1211 137.463 83.4473 137.463 86.2637V87.5488H135.48V90.1328H137.463V102Z" fill="#614111"/>
<path d="M154.785 95.5059V92.4707H145.803V95.5059H154.785Z" fill="#614111"/>
<path d="M170.59 92.6758C170.357 89.627 167.992 87.207 164.164 87.207C159.953 87.207 157.219 90.1191 157.219 94.7539C157.219 99.457 159.953 102.287 164.191 102.287C167.828 102.287 170.33 100.154 170.604 96.9141H167.391C167.076 98.5547 165.955 99.5391 164.232 99.5391C162.072 99.5391 160.678 97.7891 160.678 94.7539C160.678 91.7734 162.059 89.9688 164.205 89.9688C166.023 89.9688 167.104 91.1309 167.377 92.6758H170.59Z" fill="#614111"/>
<path d="M179.053 102.287C183.305 102.287 186.066 99.457 186.066 94.7539C186.066 90.0645 183.277 87.207 179.053 87.207C174.828 87.207 172.039 90.0781 172.039 94.7539C172.039 99.457 174.801 102.287 179.053 102.287ZM179.053 99.5938C176.893 99.5938 175.498 97.8438 175.498 94.7539C175.498 91.6777 176.906 89.9141 179.053 89.9141C181.213 89.9141 182.607 91.6777 182.607 94.7539C182.607 97.8438 181.213 99.5938 179.053 99.5938Z" fill="#614111"/>
<path d="M188.254 102H191.658V93.127C191.658 91.377 192.807 90.1055 194.447 90.1055C196.033 90.1055 197.018 91.1035 197.018 92.7168V102H200.326V93.0449C200.326 91.3086 201.447 90.1055 203.088 90.1055C204.756 90.1055 205.686 91.1172 205.686 92.8945V102H209.09V92.0605C209.09 89.1621 207.217 87.2344 204.359 87.2344C202.268 87.2344 200.545 88.3555 199.848 90.1465H199.766C199.232 88.2871 197.77 87.2344 195.719 87.2344C193.75 87.2344 192.219 88.3418 191.59 90.0234H191.521V87.5078H188.254V102Z" fill="#614111"/>
<path d="M219.781 87.2617C217.676 87.2617 216.035 88.3281 215.215 90.0098H215.146V87.5078H211.824V106.771H215.229V99.5938H215.297C216.09 101.221 217.73 102.232 219.836 102.232C223.473 102.232 225.797 99.375 225.797 94.7539C225.797 90.1191 223.459 87.2617 219.781 87.2617ZM218.742 99.4434C216.623 99.4434 215.215 97.5977 215.201 94.7539C215.215 91.9375 216.623 90.0645 218.742 90.0645C220.943 90.0645 222.311 91.8965 222.311 94.7539C222.311 97.625 220.943 99.4434 218.742 99.4434Z" fill="#614111"/>
<path d="M232.25 102.232C234.109 102.232 235.928 101.262 236.762 99.6895H236.83V102H240.111V92.0195C240.111 89.1074 237.773 87.207 234.178 87.207C230.486 87.207 228.176 89.1484 228.025 91.8555H231.184C231.402 90.6523 232.428 89.873 234.041 89.873C235.723 89.873 236.748 90.748 236.748 92.2656V93.3047L232.92 93.5234C229.393 93.7422 227.41 95.2871 227.41 97.8574C227.41 100.469 229.447 102.232 232.25 102.232ZM233.275 99.6621C231.799 99.6621 230.814 98.9102 230.814 97.7207C230.814 96.5723 231.758 95.834 233.398 95.7246L236.748 95.5195V96.627C236.748 98.377 235.203 99.6621 233.275 99.6621Z" fill="#614111"/>
<path d="M242.6 91.6641C242.6 93.8105 243.994 95.1777 246.77 95.793L249.176 96.3262C250.693 96.668 251.213 97.1602 251.213 98.0352C251.213 99.1152 250.188 99.7988 248.533 99.7988C246.811 99.7988 245.84 99.0879 245.58 97.6797H242.23C242.504 100.482 244.746 102.287 248.533 102.287C252.088 102.287 254.604 100.441 254.604 97.707C254.604 95.6016 253.441 94.4395 250.434 93.7695L248.027 93.2363C246.51 92.8945 245.908 92.3203 245.908 91.4863C245.908 90.4199 246.906 89.709 248.41 89.709C249.982 89.709 250.953 90.543 251.09 91.8555H254.262C254.18 89.1074 251.938 87.207 248.41 87.207C244.91 87.207 242.6 89.0117 242.6 91.6641Z" fill="#614111"/>
<path d="M256.518 91.6641C256.518 93.8105 257.912 95.1777 260.688 95.793L263.094 96.3262C264.611 96.668 265.131 97.1602 265.131 98.0352C265.131 99.1152 264.105 99.7988 262.451 99.7988C260.729 99.7988 259.758 99.0879 259.498 97.6797H256.148C256.422 100.482 258.664 102.287 262.451 102.287C266.006 102.287 268.521 100.441 268.521 97.707C268.521 95.6016 267.359 94.4395 264.352 93.7695L261.945 93.2363C260.428 92.8945 259.826 92.3203 259.826 91.4863C259.826 90.4199 260.824 89.709 262.328 89.709C263.9 89.709 264.871 90.543 265.008 91.8555H268.18C268.098 89.1074 265.855 87.207 262.328 87.207C258.828 87.207 256.518 89.0117 256.518 91.6641Z" fill="#614111"/>
<path d="M272.473 85.3203C273.512 85.3203 274.332 84.4863 274.332 83.4746C274.332 82.4492 273.512 81.6289 272.473 81.6289C271.434 81.6289 270.6 82.4492 270.6 83.4746C270.6 84.4863 271.434 85.3203 272.473 85.3203ZM270.777 102H274.182V87.5078H270.777V102Z" fill="#614111"/>
<path d="M283.451 102.287C287.703 102.287 290.465 99.457 290.465 94.7539C290.465 90.0645 287.676 87.207 283.451 87.207C279.227 87.207 276.438 90.0781 276.438 94.7539C276.438 99.457 279.199 102.287 283.451 102.287ZM283.451 99.5938C281.291 99.5938 279.896 97.8438 279.896 94.7539C279.896 91.6777 281.305 89.9141 283.451 89.9141C285.611 89.9141 287.006 91.6777 287.006 94.7539C287.006 97.8438 285.611 99.5938 283.451 99.5938Z" fill="#614111"/>
<path d="M292.652 102H296.057V93.6055C296.057 91.5273 297.301 90.1191 299.256 90.1191C301.197 90.1191 302.154 91.2676 302.154 93.3184V102H305.559V92.6348C305.559 89.2852 303.74 87.2344 300.541 87.2344C298.312 87.2344 296.768 88.2734 295.988 89.9961H295.92V87.5078H292.652V102Z" fill="#614111"/>
<path opacity="0.4" fill-rule="evenodd" clip-rule="evenodd" d="M499.892 37.5705C531.862 37.5705 542.536 17.7426 605.823 71.5369C610.679 75.6647 615.215 79.4608 619.452 82.9517C619.452 82.9517 570.731 122.779 678 122.779L437 127C437 127 467.922 37.5705 499.892 37.5705Z" fill="#F2C18E"/>
<path fill-rule="evenodd" clip-rule="evenodd" d="M327.83 240.95C327.83 240.95 428.938 226.785 541.28 140.225C607.806 88.9676 663.452 22.189 721.028 33.2055C778.603 44.2231 729.453 274 729.453 274L318 269.279L327.83 240.95Z" fill="#CB6B48"/>
<path fill-rule="evenodd" clip-rule="evenodd" d="M747.038 114L300.235 116.445C297.422 116.46 294.607 116.451 291.797 116.419L82.2677 114H-55L-51.0783 184.576H749L747.038 114Z" fill="#E4EBE2"/>
</g>
</svg>
