<svg width="740" height="160" viewBox="0 0 740 160" fill="none" xmlns="http://www.w3.org/2000/svg">
<rect width="740" height="160" rx="32" fill="#F5E4DA"/>
<mask id="mask0" mask-type="alpha" maskUnits="userSpaceOnUse" x="0" y="0" width="740" height="160">
<rect width="740" height="160" rx="32" fill="white"/>
</mask>
<g mask="url(#mask0)">
<path d="M28.0137 64.4668H29.7812C31.7637 64.4668 33.0039 65.4434 32.9941 67.1816C32.9844 68.6562 31.7441 69.7109 29.8887 69.7109C28.0137 69.7109 26.6953 68.7637 26.5879 67.2695H24.8984C25.0254 69.6035 26.9688 71.2344 29.8887 71.2344C32.6523 71.2344 34.7812 69.5449 34.7812 67.123C34.7812 65.1211 33.3848 63.8418 31.334 63.666V63.627C33.1016 63.2559 34.3223 62.0547 34.3223 60.3066C34.3223 58.2949 32.6914 56.6738 29.8691 56.6738C27.2324 56.6738 25.377 58.207 25.1816 60.5996H26.8711C26.9785 59.0762 28.209 58.1973 29.8691 58.1973C31.6758 58.1973 32.5547 59.1445 32.5547 60.541C32.5547 61.9473 31.3828 62.9824 29.7031 62.9824H28.0137V64.4668Z" fill="#441E07"/>
<path d="M41.041 71H42.7402V64.6328C42.7402 63.2266 43.7168 62.1719 45.0645 62.1719C46.3242 62.1719 47.1445 62.9727 47.1445 64.1934V71H48.8438V64.5449C48.8438 63.168 49.791 62.1719 51.1387 62.1719C52.4766 62.1719 53.248 62.9922 53.248 64.3789V71H54.9473V63.9883C54.9473 61.9766 53.6484 60.668 51.6367 60.668C50.2109 60.668 49.0195 61.3906 48.4531 62.6016H48.4141C47.9746 61.3711 46.9492 60.668 45.5625 60.668C44.1953 60.668 43.1602 61.3906 42.6816 62.4648H42.6426V60.8438H41.041V71Z" fill="#441E07"/>
<path d="M58.0527 59.0371C58.6484 59.0371 59.1172 58.5586 59.1172 57.9727C59.1172 57.377 58.6484 56.9082 58.0527 56.9082C57.4668 56.9082 56.9883 57.377 56.9883 57.9727C56.9883 58.5586 57.4668 59.0371 58.0527 59.0371ZM57.2031 71H58.9023V60.8438H57.2031V71Z" fill="#441E07"/>
<path d="M61.1973 71H62.8965V65.0234C62.8965 63.3047 63.9414 62.1719 65.543 62.1719C67.1055 62.1719 67.877 63.0703 67.877 64.7109V71H69.5762V64.4082C69.5762 62.1035 68.2871 60.668 66.0605 60.668C64.4883 60.668 63.4043 61.3711 62.8379 62.4648H62.7988V60.8438H61.1973V71Z" fill="#441E07"/>
<path d="M71.5684 63.6465C71.5684 65.1113 72.4961 66 74.4102 66.459L76.0215 66.8496C77.1836 67.1328 77.584 67.5527 77.584 68.2852C77.584 69.2031 76.7344 69.7891 75.3574 69.7891C73.9805 69.7891 73.1992 69.2324 72.9941 68.0703H71.2949C71.4902 69.9746 72.9746 71.1758 75.3574 71.1758C77.623 71.1758 79.293 69.9258 79.293 68.1582C79.293 66.7031 78.5508 65.9023 76.5 65.4043L74.8887 65.0137C73.7559 64.7402 73.2383 64.2617 73.2383 63.5586C73.2383 62.6699 74.0586 62.0547 75.2988 62.0547C76.5488 62.0547 77.3301 62.709 77.457 63.7734H79.0781C79.0098 61.9766 77.5254 60.668 75.2988 60.668C73.1016 60.668 71.5684 61.9082 71.5684 63.6465Z" fill="#441E07"/>
<path d="M24.916 96.4902C25.0801 100.1 28.1016 102.328 32.668 102.328C37.4121 102.328 40.3789 99.9492 40.3789 96.1758C40.3789 93.25 38.6426 91.582 34.4863 90.7207L32.3535 90.2832C29.8926 89.7637 28.9082 88.9023 28.9082 87.5625C28.9082 85.9082 30.4668 84.8691 32.6543 84.8691C34.9102 84.8691 36.4688 85.9902 36.6328 87.8496H40.0098C39.9277 84.3223 37.043 81.9434 32.6816 81.9434C28.4023 81.9434 25.3535 84.2949 25.3535 87.7676C25.3535 90.6523 27.1992 92.5117 31.1504 93.3184L33.2695 93.7559C35.8398 94.2891 36.8242 95.1641 36.8242 96.5859C36.8242 98.2266 35.1699 99.4023 32.791 99.4023C30.3301 99.4023 28.5527 98.3086 28.293 96.4902H24.916Z" fill="#722E06"/>
<path d="M43.6191 84.1172V87.5078H41.541V90.1328H43.6191V98.1445C43.6191 100.961 44.8496 102.068 47.9805 102.068C48.7051 102.068 49.375 102.014 49.7441 101.932V99.334C49.5254 99.375 49.0879 99.4023 48.7734 99.4023C47.5703 99.4023 47.0234 98.8555 47.0234 97.666V90.1328H49.7578V87.5078H47.0234V84.1172H43.6191Z" fill="#722E06"/>
<path d="M58.2207 102.287C62.4727 102.287 65.2344 99.457 65.2344 94.7539C65.2344 90.0645 62.4453 87.207 58.2207 87.207C53.9961 87.207 51.207 90.0781 51.207 94.7539C51.207 99.457 53.9688 102.287 58.2207 102.287ZM58.2207 99.5938C56.0605 99.5938 54.666 97.8438 54.666 94.7539C54.666 91.6777 56.0742 89.9141 58.2207 89.9141C60.3809 89.9141 61.7754 91.6777 61.7754 94.7539C61.7754 97.8438 60.3809 99.5938 58.2207 99.5938Z" fill="#722E06"/>
<path d="M75.3789 87.2617C73.2734 87.2617 71.6328 88.3281 70.8125 90.0098H70.7441V87.5078H67.4219V106.771H70.8262V99.5938H70.8945C71.6875 101.221 73.3281 102.232 75.4336 102.232C79.0703 102.232 81.3945 99.375 81.3945 94.7539C81.3945 90.1191 79.0566 87.2617 75.3789 87.2617ZM74.3398 99.4434C72.2207 99.4434 70.8125 97.5977 70.7988 94.7539C70.8125 91.9375 72.2207 90.0645 74.3398 90.0645C76.541 90.0645 77.9082 91.8965 77.9082 94.7539C77.9082 97.625 76.541 99.4434 74.3398 99.4434Z" fill="#722E06"/>
<path d="M88.9277 91.6641C88.9277 93.8105 90.3223 95.1777 93.0977 95.793L95.5039 96.3262C97.0215 96.668 97.541 97.1602 97.541 98.0352C97.541 99.1152 96.5156 99.7988 94.8613 99.7988C93.1387 99.7988 92.168 99.0879 91.9082 97.6797H88.5586C88.832 100.482 91.0742 102.287 94.8613 102.287C98.416 102.287 100.932 100.441 100.932 97.707C100.932 95.6016 99.7695 94.4395 96.7617 93.7695L94.3555 93.2363C92.8379 92.8945 92.2363 92.3203 92.2363 91.4863C92.2363 90.4199 93.2344 89.709 94.7383 89.709C96.3105 89.709 97.2812 90.543 97.418 91.8555H100.59C100.508 89.1074 98.2656 87.207 94.7383 87.207C91.2383 87.207 88.9277 89.0117 88.9277 91.6641Z" fill="#722E06"/>
<path d="M107.371 102.232C109.23 102.232 111.049 101.262 111.883 99.6895H111.951V102H115.232V92.0195C115.232 89.1074 112.895 87.207 109.299 87.207C105.607 87.207 103.297 89.1484 103.146 91.8555H106.305C106.523 90.6523 107.549 89.873 109.162 89.873C110.844 89.873 111.869 90.748 111.869 92.2656V93.3047L108.041 93.5234C104.514 93.7422 102.531 95.2871 102.531 97.8574C102.531 100.469 104.568 102.232 107.371 102.232ZM108.396 99.6621C106.92 99.6621 105.936 98.9102 105.936 97.7207C105.936 96.5723 106.879 95.834 108.52 95.7246L111.869 95.5195V96.627C111.869 98.377 110.324 99.6621 108.396 99.6621Z" fill="#722E06"/>
<path d="M119.553 107.387C122.861 107.387 124.461 106.17 125.691 102.574L130.941 87.5078H127.359L123.941 99.1016H123.873L120.469 87.5078H116.75L121.904 102.014C121.918 102.055 121.699 102.779 121.699 102.82C121.33 104.16 120.605 104.693 119.197 104.693C118.992 104.693 118.391 104.68 118.213 104.639V107.332C118.391 107.373 119.348 107.387 119.553 107.387Z" fill="#722E06"/>
<path d="M134.332 85.3203C135.371 85.3203 136.191 84.4863 136.191 83.4746C136.191 82.4492 135.371 81.6289 134.332 81.6289C133.293 81.6289 132.459 82.4492 132.459 83.4746C132.459 84.4863 133.293 85.3203 134.332 85.3203ZM132.637 102H136.041V87.5078H132.637V102Z" fill="#722E06"/>
<path d="M138.898 102H142.303V93.6055C142.303 91.5273 143.547 90.1191 145.502 90.1191C147.443 90.1191 148.4 91.2676 148.4 93.3184V102H151.805V92.6348C151.805 89.2852 149.986 87.2344 146.787 87.2344C144.559 87.2344 143.014 88.2734 142.234 89.9961H142.166V87.5078H138.898V102Z" fill="#722E06"/>
<path d="M160.924 107.469C165.148 107.469 167.924 105.227 167.924 101.768V87.5078H164.588V89.9961H164.533C163.699 88.3281 162.031 87.2617 159.967 87.2617C156.262 87.2617 153.938 90.1191 153.938 94.6992C153.938 99.2109 156.316 102.014 159.898 102.014C161.977 102.014 163.686 100.975 164.438 99.416H164.52V101.863C164.52 103.709 163.248 104.953 161.033 104.953C159.42 104.953 158.176 104.201 157.807 103.094H154.43C154.771 105.637 157.342 107.469 160.924 107.469ZM160.938 99.3066C158.791 99.3066 157.424 97.584 157.424 94.7129C157.424 91.8691 158.791 90.0645 160.938 90.0645C163.111 90.0645 164.52 91.8965 164.52 94.7129C164.52 97.543 163.111 99.3066 160.938 99.3066Z" fill="#722E06"/>
<path d="M178.602 82.2715L176.674 89.6953H179.996L181.227 82.2715H178.602ZM184.371 82.2715L182.525 89.6953H185.861L186.996 82.2715H184.371Z" fill="#722E06"/>
<path d="M189.416 91.6641C189.416 93.8105 190.811 95.1777 193.586 95.793L195.992 96.3262C197.51 96.668 198.029 97.1602 198.029 98.0352C198.029 99.1152 197.004 99.7988 195.35 99.7988C193.627 99.7988 192.656 99.0879 192.396 97.6797H189.047C189.32 100.482 191.562 102.287 195.35 102.287C198.904 102.287 201.42 100.441 201.42 97.707C201.42 95.6016 200.258 94.4395 197.25 93.7695L194.844 93.2363C193.326 92.8945 192.725 92.3203 192.725 91.4863C192.725 90.4199 193.723 89.709 195.227 89.709C196.799 89.709 197.77 90.543 197.906 91.8555H201.078C200.996 89.1074 198.754 87.207 195.227 87.207C191.727 87.207 189.416 89.0117 189.416 91.6641Z" fill="#722E06"/>
<path d="M203.689 102H207.094V93.6738C207.094 91.541 208.338 90.1191 210.389 90.1191C212.357 90.1191 213.369 91.3359 213.369 93.3594V102H216.773V92.6621C216.773 89.3398 214.9 87.2344 211.701 87.2344C209.5 87.2344 207.9 88.2324 207.121 89.9961H207.053V82.2715H203.689V102Z" fill="#722E06"/>
<path d="M225.92 102.287C230.172 102.287 232.934 99.457 232.934 94.7539C232.934 90.0645 230.145 87.207 225.92 87.207C221.695 87.207 218.906 90.0781 218.906 94.7539C218.906 99.457 221.668 102.287 225.92 102.287ZM225.92 99.5938C223.76 99.5938 222.365 97.8438 222.365 94.7539C222.365 91.6777 223.773 89.9141 225.92 89.9141C228.08 89.9141 229.475 91.6777 229.475 94.7539C229.475 97.8438 228.08 99.5938 225.92 99.5938Z" fill="#722E06"/>
<path d="M247.973 87.5078H244.568V95.8887C244.568 97.9941 243.352 99.3887 241.383 99.3887C239.469 99.3887 238.457 98.2676 238.457 96.1895V87.5078H235.053V96.873C235.053 100.223 237.049 102.26 240.193 102.26C242.395 102.26 243.857 101.248 244.623 99.4844H244.691V102H247.973V87.5078Z" fill="#722E06"/>
<path d="M250.857 102H254.262V82.2715H250.857V102Z" fill="#722E06"/>
<path d="M262.574 102.232C264.693 102.232 266.361 101.152 267.154 99.5254H267.209V102H270.545V82.2715H267.141V89.9414H267.059C266.293 88.3418 264.652 87.2617 262.574 87.2617C258.924 87.2617 256.559 90.1602 256.559 94.7402C256.559 99.3477 258.924 102.232 262.574 102.232ZM263.6 90.0645C265.746 90.0645 267.154 91.9102 267.154 94.7539C267.154 97.625 265.746 99.4434 263.6 99.4434C261.398 99.4434 260.045 97.6387 260.045 94.7539C260.045 91.8828 261.412 90.0645 263.6 90.0645Z" fill="#722E06"/>
<path d="M276.383 89.6953L278.229 82.2715H274.906L273.771 89.6953H276.383ZM282.152 89.6953L284.094 82.2715H280.758L279.541 89.6953H282.152Z" fill="#722E06"/>
<path opacity="0.353399" fill-rule="evenodd" clip-rule="evenodd" d="M657.27 14.8902C657.661 12.9986 658.051 7.70236 666.246 8.08059C674.441 8.45899 698.245 10.3505 701.367 9.21545L707.611 6.94557C707.611 6.94557 725.171 6.75646 727.122 6.94557C729.073 7.13485 735.317 6 736.488 6H740V156C740 156 638.93 152.814 637.759 153.65C636.588 154.487 603.418 151.46 594.833 151.082C586.248 150.704 572.902 149.831 576.648 147.051C580.395 144.272 579.224 123.271 581.175 121.382C583.126 119.493 589.76 116.96 589.76 115.957C589.76 114.953 583.906 114.109 583.906 114.109L581.955 105.293C581.955 105.293 587.419 95.4703 590.151 93.9571C592.882 92.4439 594.833 84.6885 594.833 84.6885C594.833 84.6885 597.175 76.5547 598.735 75.9874C600.296 75.4199 610.442 60.4765 617.076 59.3416C623.71 58.2068 632.685 55.2276 633.466 53.8561C634.247 52.4849 638.539 44.9131 638.539 44.9131L645.173 40.9935C645.173 40.9935 645.173 31.5358 645.563 28.6986C645.954 25.8612 646.734 23.5913 648.685 23.5913C650.637 23.5913 658 15.6468 658 15.6468" fill="#EFB075"/>
<path fill-rule="evenodd" clip-rule="evenodd" d="M740 61C740 61 713.566 61.3572 712.21 63.545C710.854 65.7328 701.365 73.4781 699.331 75.6294C697.298 77.7807 688.486 82.2484 686.453 84.7481C684.42 87.2471 667.474 103.167 667.474 103.167C667.474 103.167 661.374 112.659 659.341 113.937C657.307 115.215 648.496 117.797 646.463 118.658C644.429 119.518 628.932 116.506 628.932 116.506L601.049 135.008C601.049 135.008 577.326 147.056 573.259 150.928C569.192 154.801 555.636 155.231 550.213 156.092C544.791 156.952 525.812 159.964 525.812 159.964L517 166.418C517 166.418 642.395 169 651.207 169C660.019 169 740 166.418 740 166.418V61Z" fill="#AF6A56"/>
<path fill-rule="evenodd" clip-rule="evenodd" d="M477.065 31.0715C477.065 31.0715 473.336 40.502 470.435 37.3585C467.535 34.215 464.22 24.3354 467.121 22.0901C470.021 19.8447 473.75 17.5994 479.137 21.6409C484.523 25.6826 485.766 26.1317 486.595 24.7845C487.423 23.4372 490.738 14.4558 494.881 18.0484C499.025 21.6409 499.854 24.7845 501.097 23.4372C502.34 22.0901 504.411 14.9049 508.14 17.5994C511.869 20.2938 515.184 25.6826 515.184 25.6826C515.184 25.6826 522.228 16.2522 528.443 18.4976C534.658 20.7429 537.559 31.0715 532.172 34.215C526.786 37.3585 521.399 36.0112 521.814 34.215C522.228 32.4187 519.328 37.8075 516.427 36.4603C513.527 35.1132 511.455 31.9696 509.383 31.5205C507.312 31.0715 506.069 38.2565 501.511 36.0112C496.953 33.7658 493.224 30.1733 493.224 30.1733C493.224 30.1733 492.396 38.7057 487.009 37.3585C481.623 36.0113 477.065 31.0715 477.065 31.0715" fill="white"/>
</g>
</svg>
