<svg width="740" height="160" viewBox="0 0 740 160" fill="none" xmlns="http://www.w3.org/2000/svg">
<rect width="740" height="160" rx="32" fill="#F6EFE1"/>
<mask id="mask0" mask-type="alpha" maskUnits="userSpaceOnUse" x="0" y="0" width="740" height="160">
<rect width="740" height="160" rx="32" fill="white"/>
</mask>
<g mask="url(#mask0)">
<path opacity="0.302502" fill-rule="evenodd" clip-rule="evenodd" d="M621.756 35.5524C622.811 42.8064 632.894 51.949 639.191 55.7817C646.809 60.4184 657.632 63.8419 664.546 62.8179C676.424 61.0587 680.856 59.8861 689.426 54.0224C697.996 48.1591 737.742 -2.13443 676.424 -18.3923C623.737 -32.3616 618.519 13.2937 621.756 35.5524" fill="#FFB973"/>
<path fill-rule="evenodd" clip-rule="evenodd" d="M534.182 33.4891L550.187 40.4463L549.495 55.0231L550.615 87.4312L568.056 15.443L576.248 18.9318L580.255 54.0316L572.014 76.7777C572.014 76.7777 573.289 89.952 574.309 92.4669C575.329 94.9812 573.94 100.225 573.94 100.225L591.745 85.2725C591.745 85.2725 615.65 38.3037 617.688 35.1544C619.727 32.0051 634.258 14 634.258 14L646.469 20.8376L635.343 55.1518C635.343 55.1518 632.639 56.1033 632.912 66.342C633.186 76.5802 624.708 103.119 624.708 103.119L620.57 110.253L635.462 108.645L646.545 91.2625L658.472 80.0687L666 92.3711C666 92.3711 658.194 109.941 657.698 112.369C657.204 114.797 652.454 126.809 652.454 126.809L641.527 140.926L627.287 152.806L623.84 169.396L604.769 171L577.793 163.086L560.51 151.046L542.352 125.445L531.663 94.5393L529 70.2317L534.182 33.4891" fill="#C49F55"/>
<path fill-rule="evenodd" clip-rule="evenodd" d="M599.38 143.213C599.38 143.213 644.638 180.17 644.638 182.065C644.638 183.96 652.668 202.438 643.908 202.912C635.148 203.386 534.412 201.964 528.573 198.174C522.733 194.384 499.374 172.589 499.374 168.798C499.374 165.008 494.264 154.584 503.754 149.373C513.243 144.161 590.62 135.158 599.38 143.213" fill="#B95028"/>
</g>
<path d="M31.8418 70H33.541V67.0703H35.5332V65.5273H33.541V55.9082H30.9434C27.6133 60.6836 25.9629 63.252 24.7617 65.4785V67.0703H31.8418V70ZM26.5 65.4883C27.6133 63.5352 29.1465 61.1816 31.8125 57.373H31.8418V65.5273H26.5V65.4883Z" fill="#443016"/>
<path d="M41.2949 70H42.9941V63.6328C42.9941 62.2266 43.9707 61.1719 45.3184 61.1719C46.5781 61.1719 47.3984 61.9727 47.3984 63.1934V70H49.0977V63.5449C49.0977 62.168 50.0449 61.1719 51.3926 61.1719C52.7305 61.1719 53.502 61.9922 53.502 63.3789V70H55.2012V62.9883C55.2012 60.9766 53.9023 59.668 51.8906 59.668C50.4648 59.668 49.2734 60.3906 48.707 61.6016H48.668C48.2285 60.3711 47.2031 59.668 45.8164 59.668C44.4492 59.668 43.4141 60.3906 42.9355 61.4648H42.8965V59.8438H41.2949V70Z" fill="#443016"/>
<path d="M58.3066 58.0371C58.9023 58.0371 59.3711 57.5586 59.3711 56.9727C59.3711 56.377 58.9023 55.9082 58.3066 55.9082C57.7207 55.9082 57.2422 56.377 57.2422 56.9727C57.2422 57.5586 57.7207 58.0371 58.3066 58.0371ZM57.457 70H59.1562V59.8438H57.457V70Z" fill="#443016"/>
<path d="M61.4512 70H63.1504V64.0234C63.1504 62.3047 64.1953 61.1719 65.7969 61.1719C67.3594 61.1719 68.1309 62.0703 68.1309 63.7109V70H69.8301V63.4082C69.8301 61.1035 68.541 59.668 66.3145 59.668C64.7422 59.668 63.6582 60.3711 63.0918 61.4648H63.0527V59.8438H61.4512V70Z" fill="#443016"/>
<path d="M71.8223 62.6465C71.8223 64.1113 72.75 65 74.6641 65.459L76.2754 65.8496C77.4375 66.1328 77.8379 66.5527 77.8379 67.2852C77.8379 68.2031 76.9883 68.7891 75.6113 68.7891C74.2344 68.7891 73.4531 68.2324 73.248 67.0703H71.5488C71.7441 68.9746 73.2285 70.1758 75.6113 70.1758C77.877 70.1758 79.5469 68.9258 79.5469 67.1582C79.5469 65.7031 78.8047 64.9023 76.7539 64.4043L75.1426 64.0137C74.0098 63.7402 73.4922 63.2617 73.4922 62.5586C73.4922 61.6699 74.3125 61.0547 75.5527 61.0547C76.8027 61.0547 77.584 61.709 77.7109 62.7734H79.332C79.2637 60.9766 77.7793 59.668 75.5527 59.668C73.3555 59.668 71.8223 60.9082 71.8223 62.6465Z" fill="#443016"/>
<path d="M29.2637 93.5762H33.0781L36.9609 101H40.9805L36.6738 93.043C39.0254 92.1953 40.3926 90.0215 40.3926 87.4102C40.3926 83.6367 37.8359 81.2715 33.5703 81.2715H25.7363V101H29.2637V93.5762ZM29.2637 84.1289H33.1738C35.4023 84.1289 36.7832 85.4141 36.7832 87.4922C36.7832 89.625 35.4844 90.8691 33.2422 90.8691H29.2637V84.1289Z" fill="#754507"/>
<path d="M52.4102 96.666C52.041 97.8691 50.8379 98.6621 49.252 98.6621C47.0234 98.6621 45.6016 97.1035 45.6016 94.7793V94.5742H55.7324V93.4668C55.7324 89.0645 53.1621 86.207 49.0469 86.207C44.8633 86.207 42.2109 89.2285 42.2109 93.8086C42.2109 98.4297 44.8359 101.287 49.1836 101.287C52.6152 101.287 55.1582 99.4004 55.5957 96.666H52.4102ZM49.0605 88.8457C51.0156 88.8457 52.3281 90.2812 52.3965 92.332H45.6289C45.7656 90.3086 47.1465 88.8457 49.0605 88.8457Z" fill="#754507"/>
<path d="M70.7031 91.6758C70.4707 88.627 68.1055 86.207 64.2773 86.207C60.0664 86.207 57.332 89.1191 57.332 93.7539C57.332 98.457 60.0664 101.287 64.3047 101.287C67.9414 101.287 70.4434 99.1543 70.7168 95.9141H67.5039C67.1895 97.5547 66.0684 98.5391 64.3457 98.5391C62.1855 98.5391 60.791 96.7891 60.791 93.7539C60.791 90.7734 62.1719 88.9688 64.3184 88.9688C66.1367 88.9688 67.2168 90.1309 67.4902 91.6758H70.7031Z" fill="#754507"/>
<path d="M79.166 101.287C83.418 101.287 86.1797 98.457 86.1797 93.7539C86.1797 89.0645 83.3906 86.207 79.166 86.207C74.9414 86.207 72.1523 89.0781 72.1523 93.7539C72.1523 98.457 74.9141 101.287 79.166 101.287ZM79.166 98.5938C77.0059 98.5938 75.6113 96.8438 75.6113 93.7539C75.6113 90.6777 77.0195 88.9141 79.166 88.9141C81.3262 88.9141 82.7207 90.6777 82.7207 93.7539C82.7207 96.8438 81.3262 98.5938 79.166 98.5938Z" fill="#754507"/>
<path d="M94.752 106.469C98.9766 106.469 101.752 104.227 101.752 100.768V86.5078H98.416V88.9961H98.3613C97.5273 87.3281 95.8594 86.2617 93.7949 86.2617C90.0898 86.2617 87.7656 89.1191 87.7656 93.6992C87.7656 98.2109 90.1445 101.014 93.7266 101.014C95.8047 101.014 97.5137 99.9746 98.2656 98.416H98.3477V100.863C98.3477 102.709 97.0762 103.953 94.8613 103.953C93.248 103.953 92.0039 103.201 91.6348 102.094H88.2578C88.5996 104.637 91.1699 106.469 94.752 106.469ZM94.7656 98.3066C92.6191 98.3066 91.252 96.584 91.252 93.7129C91.252 90.8691 92.6191 89.0645 94.7656 89.0645C96.9395 89.0645 98.3477 90.8965 98.3477 93.7129C98.3477 96.543 96.9395 98.3066 94.7656 98.3066Z" fill="#754507"/>
<path d="M104.527 101H107.932V92.6055C107.932 90.5273 109.176 89.1191 111.131 89.1191C113.072 89.1191 114.029 90.2676 114.029 92.3184V101H117.434V91.6348C117.434 88.2852 115.615 86.2344 112.416 86.2344C110.188 86.2344 108.643 87.2734 107.863 88.9961H107.795V86.5078H104.527V101Z" fill="#754507"/>
<path d="M121.945 84.3203C122.984 84.3203 123.805 83.4863 123.805 82.4746C123.805 81.4492 122.984 80.6289 121.945 80.6289C120.906 80.6289 120.072 81.4492 120.072 82.4746C120.072 83.4863 120.906 84.3203 121.945 84.3203ZM120.25 101H123.654V86.5078H120.25V101Z" fill="#754507"/>
<path d="M126.225 101H137.777V98.3477H130.449V98.2793L137.654 88.75V86.5078H126.293V89.1602H133.73V89.2148L126.225 98.9355V101Z" fill="#754507"/>
<path d="M149.508 96.666C149.139 97.8691 147.936 98.6621 146.35 98.6621C144.121 98.6621 142.699 97.1035 142.699 94.7793V94.5742H152.83V93.4668C152.83 89.0645 150.26 86.207 146.145 86.207C141.961 86.207 139.309 89.2285 139.309 93.8086C139.309 98.4297 141.934 101.287 146.281 101.287C149.713 101.287 152.256 99.4004 152.693 96.666H149.508ZM146.158 88.8457C148.113 88.8457 149.426 90.2812 149.494 92.332H142.727C142.863 90.3086 144.244 88.8457 146.158 88.8457Z" fill="#754507"/>
<path d="M162.264 106.387C165.572 106.387 167.172 105.17 168.402 101.574L173.652 86.5078H170.07L166.652 98.1016H166.584L163.18 86.5078H159.461L164.615 101.014C164.629 101.055 164.41 101.779 164.41 101.82C164.041 103.16 163.316 103.693 161.908 103.693C161.703 103.693 161.102 103.68 160.924 103.639V106.332C161.102 106.373 162.059 106.387 162.264 106.387Z" fill="#754507"/>
<path d="M181.268 101.287C185.52 101.287 188.281 98.457 188.281 93.7539C188.281 89.0645 185.492 86.207 181.268 86.207C177.043 86.207 174.254 89.0781 174.254 93.7539C174.254 98.457 177.016 101.287 181.268 101.287ZM181.268 98.5938C179.107 98.5938 177.713 96.8438 177.713 93.7539C177.713 90.6777 179.121 88.9141 181.268 88.9141C183.428 88.9141 184.822 90.6777 184.822 93.7539C184.822 96.8438 183.428 98.5938 181.268 98.5938Z" fill="#754507"/>
<path d="M203.32 86.5078H199.916V94.8887C199.916 96.9941 198.699 98.3887 196.73 98.3887C194.816 98.3887 193.805 97.2676 193.805 95.1895V86.5078H190.4V95.873C190.4 99.2227 192.396 101.26 195.541 101.26C197.742 101.26 199.205 100.248 199.971 98.4844H200.039V101H203.32V86.5078Z" fill="#754507"/>
<path d="M206.109 101H209.514V92.5645C209.514 90.5273 210.676 89.2832 212.604 89.2832C213.178 89.2832 213.697 89.3652 213.984 89.4746V86.3984C213.738 86.3438 213.355 86.2617 212.918 86.2617C211.209 86.2617 209.938 87.2734 209.445 89.0371H209.377V86.5078H206.109V101Z" fill="#754507"/>
<path d="M221.08 90.6641C221.08 92.8105 222.475 94.1777 225.25 94.793L227.656 95.3262C229.174 95.668 229.693 96.1602 229.693 97.0352C229.693 98.1152 228.668 98.7988 227.014 98.7988C225.291 98.7988 224.32 98.0879 224.061 96.6797H220.711C220.984 99.4824 223.227 101.287 227.014 101.287C230.568 101.287 233.084 99.4414 233.084 96.707C233.084 94.6016 231.922 93.4395 228.914 92.7695L226.508 92.2363C224.99 91.8945 224.389 91.3203 224.389 90.4863C224.389 89.4199 225.387 88.709 226.891 88.709C228.463 88.709 229.434 89.543 229.57 90.8555H232.742C232.66 88.1074 230.418 86.207 226.891 86.207C223.391 86.207 221.08 88.0117 221.08 90.6641Z" fill="#754507"/>
<path d="M236.201 83.1172V86.5078H234.123V89.1328H236.201V97.1445C236.201 99.9609 237.432 101.068 240.562 101.068C241.287 101.068 241.957 101.014 242.326 100.932V98.334C242.107 98.375 241.67 98.4023 241.355 98.4023C240.152 98.4023 239.605 97.8555 239.605 96.666V89.1328H242.34V86.5078H239.605V83.1172H236.201Z" fill="#754507"/>
<path d="M244.664 101H248.068V92.5645C248.068 90.5273 249.23 89.2832 251.158 89.2832C251.732 89.2832 252.252 89.3652 252.539 89.4746V86.3984C252.293 86.3438 251.91 86.2617 251.473 86.2617C249.764 86.2617 248.492 87.2734 248 89.0371H247.932V86.5078H244.664V101Z" fill="#754507"/>
<path d="M263.34 96.666C262.971 97.8691 261.768 98.6621 260.182 98.6621C257.953 98.6621 256.531 97.1035 256.531 94.7793V94.5742H266.662V93.4668C266.662 89.0645 264.092 86.207 259.977 86.207C255.793 86.207 253.141 89.2285 253.141 93.8086C253.141 98.4297 255.766 101.287 260.113 101.287C263.545 101.287 266.088 99.4004 266.525 96.666H263.34ZM259.99 88.8457C261.945 88.8457 263.258 90.2812 263.326 92.332H256.559C256.695 90.3086 258.076 88.8457 259.99 88.8457Z" fill="#754507"/>
<path d="M268.863 101H272.268V92.6055C272.268 90.5273 273.512 89.1191 275.467 89.1191C277.408 89.1191 278.365 90.2676 278.365 92.3184V101H281.77V91.6348C281.77 88.2852 279.951 86.2344 276.752 86.2344C274.523 86.2344 272.979 87.2734 272.199 88.9961H272.131V86.5078H268.863V101Z" fill="#754507"/>
<path d="M290.889 106.469C295.113 106.469 297.889 104.227 297.889 100.768V86.5078H294.553V88.9961H294.498C293.664 87.3281 291.996 86.2617 289.932 86.2617C286.227 86.2617 283.902 89.1191 283.902 93.6992C283.902 98.2109 286.281 101.014 289.863 101.014C291.941 101.014 293.65 99.9746 294.402 98.416H294.484V100.863C294.484 102.709 293.213 103.953 290.998 103.953C289.385 103.953 288.141 103.201 287.771 102.094H284.395C284.736 104.637 287.307 106.469 290.889 106.469ZM290.902 98.3066C288.756 98.3066 287.389 96.584 287.389 93.7129C287.389 90.8691 288.756 89.0645 290.902 89.0645C293.076 89.0645 294.484 90.8965 294.484 93.7129C294.484 96.543 293.076 98.3066 290.902 98.3066Z" fill="#754507"/>
<path d="M301.607 83.1172V86.5078H299.529V89.1328H301.607V97.1445C301.607 99.9609 302.838 101.068 305.969 101.068C306.693 101.068 307.363 101.014 307.732 100.932V98.334C307.514 98.375 307.076 98.4023 306.762 98.4023C305.559 98.4023 305.012 97.8555 305.012 96.666V89.1328H307.746V86.5078H305.012V83.1172H301.607Z" fill="#754507"/>
<path d="M310.166 101H313.57V92.6738C313.57 90.541 314.814 89.1191 316.865 89.1191C318.834 89.1191 319.846 90.3359 319.846 92.3594V101H323.25V91.6621C323.25 88.3398 321.377 86.2344 318.178 86.2344C315.977 86.2344 314.377 87.2324 313.598 88.9961H313.529V81.2715H310.166V101Z" fill="#754507"/>
<path d="M325.725 90.6641C325.725 92.8105 327.119 94.1777 329.895 94.793L332.301 95.3262C333.818 95.668 334.338 96.1602 334.338 97.0352C334.338 98.1152 333.312 98.7988 331.658 98.7988C329.936 98.7988 328.965 98.0879 328.705 96.6797H325.355C325.629 99.4824 327.871 101.287 331.658 101.287C335.213 101.287 337.729 99.4414 337.729 96.707C337.729 94.6016 336.566 93.4395 333.559 92.7695L331.152 92.2363C329.635 91.8945 329.033 91.3203 329.033 90.4863C329.033 89.4199 330.031 88.709 331.535 88.709C333.107 88.709 334.078 89.543 334.215 90.8555H337.387C337.305 88.1074 335.062 86.207 331.535 86.207C328.035 86.207 325.725 88.0117 325.725 90.6641Z" fill="#754507"/>
</svg>
